<svg xmlns="http://www.w3.org/2000/svg" width="405.088" height="405.443" viewBox="0 0 405.088 405.443">
  <g id="Group_56" data-name="Group 56" transform="translate(-29.681 30.245) rotate(-9)" opacity="0.1">
    <g id="Group_10" data-name="Group 10" transform="translate(0)">
      <path id="Path_741" data-name="Path 741" d="M317.334,18.386a.774.774,0,1,1-.309,1.05A.774.774,0,0,1,317.334,18.386Z" transform="translate(-93.591 387.735)" fill="#061757"/>
      <path id="Path_742" data-name="Path 742" d="M326.045,22.583a2.115,2.115,0,1,1-.846,2.87A2.115,2.115,0,0,1,326.045,22.583Z" transform="translate(-86.607 373.467)" fill="#061757"/>
      <path id="Path_743" data-name="Path 743" d="M334.758,26.867a3.249,3.249,0,1,1-1.3,4.406A3.247,3.247,0,0,1,334.758,26.867Z" transform="translate(-79.527 359.296)" fill="#061757"/>
      <path id="Path_744" data-name="Path 744" d="M343.474,31.233A4.178,4.178,0,1,1,341.8,36.9,4.178,4.178,0,0,1,343.474,31.233Z" transform="translate(-72.35 345.22)" fill="#061757"/>
      <path id="Path_745" data-name="Path 745" d="M352.195,35.793a4.642,4.642,0,1,1-1.857,6.3A4.643,4.643,0,0,1,352.195,35.793Z" transform="translate(-64.957 331.361)" fill="#061757"/>
      <path id="Path_746" data-name="Path 746" d="M360.917,40.373a5.054,5.054,0,1,1-2.023,6.855A5.054,5.054,0,0,1,360.917,40.373Z" transform="translate(-57.541 317.526)" fill="#061757"/>
      <path id="Path_747" data-name="Path 747" d="M369.649,45.272a4.693,4.693,0,1,1-1.879,6.366A4.694,4.694,0,0,1,369.649,45.272Z" transform="translate(-49.764 304.051)" fill="#061757"/>
      <path id="Path_748" data-name="Path 748" d="M378.388,50.448a3.663,3.663,0,1,1-1.466,4.968A3.664,3.664,0,0,1,378.388,50.448Z" transform="translate(-41.675 290.889)" fill="#061757"/>
      <path id="Path_749" data-name="Path 749" d="M387.139,56.007a1.7,1.7,0,1,1-.681,2.31A1.7,1.7,0,0,1,387.139,56.007Z" transform="translate(-33.152 278.158)" fill="#061757"/>
      <path id="Path_750" data-name="Path 750" d="M295.134,17.74a.464.464,0,1,1-.185.629A.461.461,0,0,1,295.134,17.74Z" transform="translate(-112.807 390.103)" fill="#061757"/>
      <path id="Path_751" data-name="Path 751" d="M303.843,21.873a1.96,1.96,0,1,1-.784,2.658A1.96,1.96,0,0,1,303.843,21.873Z" transform="translate(-105.895 375.763)" fill="#061757"/>
      <path id="Path_752" data-name="Path 752" d="M312.557,26.219a2.94,2.94,0,1,1-1.176,3.987A2.942,2.942,0,0,1,312.557,26.219Z" transform="translate(-98.742 361.663)" fill="#061757"/>
      <path id="Path_753" data-name="Path 753" d="M321.279,30.779a3.4,3.4,0,1,1-1.363,4.616A3.4,3.4,0,0,1,321.279,30.779Z" transform="translate(-91.349 347.804)" fill="#061757"/>
      <path id="Path_754" data-name="Path 754" d="M330,35.381a3.765,3.765,0,1,1-1.507,5.107A3.763,3.763,0,0,1,330,35.381Z" transform="translate(-83.909 333.993)" fill="#061757"/>
      <path id="Path_755" data-name="Path 755" d="M338.723,39.938a4.229,4.229,0,1,1-1.692,5.737A4.228,4.228,0,0,1,338.723,39.938Z" transform="translate(-76.516 320.134)" fill="#061757"/>
      <path id="Path_756" data-name="Path 756" d="M347.444,44.519a4.642,4.642,0,1,1-1.857,6.3A4.644,4.644,0,0,1,347.444,44.519Z" transform="translate(-69.1 306.298)" fill="#061757"/>
      <path id="Path_757" data-name="Path 757" d="M356.166,49.1a5.054,5.054,0,1,1-2.024,6.855A5.055,5.055,0,0,1,356.166,49.1Z" transform="translate(-61.683 292.463)" fill="#061757"/>
      <path id="Path_758" data-name="Path 758" d="M364.889,53.68a5.466,5.466,0,1,1-2.188,7.415A5.466,5.466,0,0,1,364.889,53.68Z" transform="translate(-54.266 278.628)" fill="#061757"/>
      <path id="Path_759" data-name="Path 759" d="M373.609,58.24a5.931,5.931,0,1,1-2.374,8.043A5.931,5.931,0,0,1,373.609,58.24Z" transform="translate(-46.874 264.769)" fill="#061757"/>
      <path id="Path_760" data-name="Path 760" d="M382.333,62.863a6.24,6.24,0,1,1-2.5,8.465A6.239,6.239,0,0,1,382.333,62.863Z" transform="translate(-39.409 250.981)" fill="#061757"/>
      <path id="Path_761" data-name="Path 761" d="M391.071,68.017a5.261,5.261,0,1,1-2.106,7.136A5.26,5.26,0,0,1,391.071,68.017Z" transform="translate(-31.344 237.795)" fill="#061757"/>
      <path id="Path_762" data-name="Path 762" d="M399.845,74.32a1.5,1.5,0,1,1-.6,2.029A1.494,1.494,0,0,1,399.845,74.32Z" transform="translate(-21.98 225.906)" fill="#061757"/>
      <path id="Path_763" data-name="Path 763" d="M281.654,21.63a.671.671,0,1,1-.27.91A.67.67,0,0,1,281.654,21.63Z" transform="translate(-124.654 378.587)" fill="#061757"/>
      <path id="Path_764" data-name="Path 764" d="M290.364,25.829a2.011,2.011,0,1,1-.8,2.727A2.011,2.011,0,0,1,290.364,25.829Z" transform="translate(-117.669 364.319)" fill="#061757"/>
      <path id="Path_765" data-name="Path 765" d="M299.085,30.387a2.476,2.476,0,1,1-.99,3.358A2.476,2.476,0,0,1,299.085,30.387Z" transform="translate(-110.277 350.46)" fill="#061757"/>
      <path id="Path_766" data-name="Path 766" d="M307.807,34.946a2.94,2.94,0,1,1-1.177,3.987A2.94,2.94,0,0,1,307.807,34.946Z" transform="translate(-102.884 336.6)" fill="#061757"/>
      <ellipse id="Ellipse_19" data-name="Ellipse 19" cx="3.404" cy="3.404" rx="3.404" ry="3.404" transform="translate(219.26 361.832)" fill="#061757"/>
      <path id="Path_767" data-name="Path 767" d="M325.251,44.107a3.765,3.765,0,1,1-1.507,5.106A3.764,3.764,0,0,1,325.251,44.107Z" transform="translate(-88.051 308.931)" fill="#061757"/>
      <path id="Path_768" data-name="Path 768" d="M333.971,48.665a4.23,4.23,0,1,1-1.692,5.737A4.233,4.233,0,0,1,333.971,48.665Z" transform="translate(-80.658 295.071)" fill="#061757"/>
      <path id="Path_769" data-name="Path 769" d="M342.694,53.246a4.642,4.642,0,1,1-1.857,6.3A4.64,4.64,0,0,1,342.694,53.246Z" transform="translate(-73.241 281.235)" fill="#061757"/>
      <path id="Path_770" data-name="Path 770" d="M351.415,57.827a5.054,5.054,0,1,1-2.022,6.857A5.055,5.055,0,0,1,351.415,57.827Z" transform="translate(-65.825 267.4)" fill="#061757"/>
      <path id="Path_771" data-name="Path 771" d="M360.138,62.407a5.467,5.467,0,1,1-2.188,7.415A5.468,5.468,0,0,1,360.138,62.407Z" transform="translate(-58.408 253.565)" fill="#061757"/>
      <path id="Path_772" data-name="Path 772" d="M368.858,66.967a5.931,5.931,0,1,1-2.373,8.043A5.931,5.931,0,0,1,368.858,66.967Z" transform="translate(-51.016 239.706)" fill="#061757"/>
      <path id="Path_773" data-name="Path 773" d="M377.581,71.589a6.24,6.24,0,1,1-2.5,8.465A6.241,6.241,0,0,1,377.581,71.589Z" transform="translate(-43.551 225.919)" fill="#061757"/>
      <path id="Path_774" data-name="Path 774" d="M386.3,76.17a6.653,6.653,0,1,1-2.664,9.024A6.652,6.652,0,0,1,386.3,76.17Z" transform="translate(-36.134 212.084)" fill="#061757"/>
      <path id="Path_775" data-name="Path 775" d="M395.028,80.835a6.859,6.859,0,1,1-2.744,9.305A6.861,6.861,0,0,1,395.028,80.835Z" transform="translate(-28.621 198.344)" fill="#061757"/>
      <path id="Path_776" data-name="Path 776" d="M403.8,87.138a3.094,3.094,0,1,1-1.239,4.2A3.094,3.094,0,0,1,403.8,87.138Z" transform="translate(-19.258 186.455)" fill="#061757"/>
      <path id="Path_777" data-name="Path 777" d="M268.179,25.693a.464.464,0,1,1-.185.629A.463.463,0,0,1,268.179,25.693Z" transform="translate(-136.308 367.263)" fill="#061757"/>
      <path id="Path_778" data-name="Path 778" d="M276.892,29.975a1.6,1.6,0,1,1-.64,2.168A1.6,1.6,0,0,1,276.892,29.975Z" transform="translate(-129.228 353.091)" fill="#061757"/>
      <path id="Path_779" data-name="Path 779" d="M285.613,34.534a2.063,2.063,0,1,1-.825,2.8A2.063,2.063,0,0,1,285.613,34.534Z" transform="translate(-121.835 339.231)" fill="#061757"/>
      <path id="Path_780" data-name="Path 780" d="M294.335,39.114a2.476,2.476,0,1,1-.99,3.358A2.476,2.476,0,0,1,294.335,39.114Z" transform="translate(-114.419 325.397)" fill="#061757"/>
      <path id="Path_781" data-name="Path 781" d="M303.056,43.673a2.94,2.94,0,1,1-1.176,3.987A2.942,2.942,0,0,1,303.056,43.673Z" transform="translate(-107.026 311.537)" fill="#061757"/>
      <path id="Path_782" data-name="Path 782" d="M311.778,48.233a3.4,3.4,0,1,1-1.363,4.616A3.4,3.4,0,0,1,311.778,48.233Z" transform="translate(-99.633 297.678)" fill="#061757"/>
      <path id="Path_783" data-name="Path 783" d="M320.5,52.834a3.765,3.765,0,1,1-1.507,5.106A3.766,3.766,0,0,1,320.5,52.834Z" transform="translate(-92.193 283.868)" fill="#061757"/>
      <path id="Path_784" data-name="Path 784" d="M329.222,57.392a4.229,4.229,0,1,1-1.692,5.737A4.229,4.229,0,0,1,329.222,57.392Z" transform="translate(-84.8 270.008)" fill="#061757"/>
      <path id="Path_785" data-name="Path 785" d="M337.942,61.973a4.642,4.642,0,1,1-1.857,6.3A4.643,4.643,0,0,1,337.942,61.973Z" transform="translate(-77.383 256.172)" fill="#061757"/>
      <path id="Path_786" data-name="Path 786" d="M346.665,66.554a5.054,5.054,0,1,1-2.024,6.857A5.053,5.053,0,0,1,346.665,66.554Z" transform="translate(-69.967 242.337)" fill="#061757"/>
      <path id="Path_787" data-name="Path 787" d="M355.386,71.134a5.467,5.467,0,1,1-2.186,7.415A5.468,5.468,0,0,1,355.386,71.134Z" transform="translate(-62.55 228.502)" fill="#061757"/>
      <path id="Path_788" data-name="Path 788" d="M364.108,75.694a5.931,5.931,0,1,1-2.374,8.043A5.931,5.931,0,0,1,364.108,75.694Z" transform="translate(-55.157 214.643)" fill="#061757"/>
      <path id="Path_789" data-name="Path 789" d="M372.832,80.316a6.24,6.24,0,1,1-2.5,8.465A6.241,6.241,0,0,1,372.832,80.316Z" transform="translate(-47.693 200.856)" fill="#061757"/>
      <circle id="Ellipse_20" data-name="Ellipse 20" cx="6.653" cy="6.653" r="6.653" transform="translate(347.034 268.711) rotate(60.888)" fill="#061757"/>
      <path id="Path_790" data-name="Path 790" d="M390.276,89.5a7.014,7.014,0,1,1-2.808,9.513A7.015,7.015,0,0,1,390.276,89.5Z" transform="translate(-32.835 173.209)" fill="#061757"/>
      <path id="Path_791" data-name="Path 791" d="M399,94.1a7.375,7.375,0,1,1-2.952,10A7.374,7.374,0,0,1,399,94.1Z" transform="translate(-25.394 159.398)" fill="#061757"/>
      <path id="Path_792" data-name="Path 792" d="M407.774,100.531a3.3,3.3,0,1,1-1.32,4.478A3.3,3.3,0,0,1,407.774,100.531Z" transform="translate(-15.888 147.653)" fill="#061757"/>
      <path id="Path_793" data-name="Path 793" d="M254.7,29.8a.155.155,0,1,1-.062.21A.154.154,0,0,1,254.7,29.8Z" transform="translate(-147.915 355.988)" fill="#061757"/>
      <path id="Path_794" data-name="Path 794" d="M263.42,34.163a1.084,1.084,0,1,1-.432,1.469A1.084,1.084,0,0,1,263.42,34.163Z" transform="translate(-140.738 341.912)" fill="#061757"/>
      <path id="Path_795" data-name="Path 795" d="M272.14,38.7a1.6,1.6,0,1,1-.638,2.168A1.6,1.6,0,0,1,272.14,38.7Z" transform="translate(-133.37 328.028)" fill="#061757"/>
      <path id="Path_796" data-name="Path 796" d="M280.863,43.262a2.062,2.062,0,1,1-.825,2.8A2.061,2.061,0,0,1,280.863,43.262Z" transform="translate(-125.977 314.169)" fill="#061757"/>
      <path id="Path_797" data-name="Path 797" d="M289.584,47.84a2.476,2.476,0,1,1-.99,3.358A2.476,2.476,0,0,1,289.584,47.84Z" transform="translate(-118.561 300.334)" fill="#061757"/>
      <path id="Path_798" data-name="Path 798" d="M298.306,52.4a2.94,2.94,0,1,1-1.177,3.987A2.939,2.939,0,0,1,298.306,52.4Z" transform="translate(-111.168 286.475)" fill="#061757"/>
      <path id="Path_799" data-name="Path 799" d="M307.027,56.96a3.4,3.4,0,1,1-1.363,4.616A3.4,3.4,0,0,1,307.027,56.96Z" transform="translate(-103.775 272.616)" fill="#061757"/>
      <path id="Path_800" data-name="Path 800" d="M315.75,61.561a3.765,3.765,0,1,1-1.507,5.106A3.764,3.764,0,0,1,315.75,61.561Z" transform="translate(-96.335 258.805)" fill="#061757"/>
      <path id="Path_801" data-name="Path 801" d="M324.47,66.119a4.23,4.23,0,1,1-1.692,5.737A4.232,4.232,0,0,1,324.47,66.119Z" transform="translate(-88.942 244.945)" fill="#061757"/>
      <path id="Path_802" data-name="Path 802" d="M333.193,70.7a4.642,4.642,0,1,1-1.859,6.3A4.642,4.642,0,0,1,333.193,70.7Z" transform="translate(-81.525 231.11)" fill="#061757"/>
      <path id="Path_803" data-name="Path 803" d="M341.914,75.281a5.054,5.054,0,1,1-2.022,6.857A5.055,5.055,0,0,1,341.914,75.281Z" transform="translate(-74.108 217.274)" fill="#061757"/>
      <path id="Path_804" data-name="Path 804" d="M350.637,79.861a5.467,5.467,0,1,1-2.188,7.416A5.466,5.466,0,0,1,350.637,79.861Z" transform="translate(-66.692 203.44)" fill="#061757"/>
      <path id="Path_805" data-name="Path 805" d="M359.357,84.42a5.931,5.931,0,1,1-2.374,8.045A5.931,5.931,0,0,1,359.357,84.42Z" transform="translate(-59.299 189.581)" fill="#061757"/>
      <path id="Path_806" data-name="Path 806" d="M368.08,89.043a6.24,6.24,0,1,1-2.5,8.465A6.241,6.241,0,0,1,368.08,89.043Z" transform="translate(-51.834 175.794)" fill="#061757"/>
      <ellipse id="Ellipse_21" data-name="Ellipse 21" cx="6.653" cy="6.653" rx="6.653" ry="6.653" transform="matrix(0.686, 0.728, -0.728, 0.686, 335.845, 252.02)" fill="#061757"/>
      <path id="Path_807" data-name="Path 807" d="M385.526,98.225a7.014,7.014,0,1,1-2.808,9.515A7.013,7.013,0,0,1,385.526,98.225Z" transform="translate(-36.977 148.147)" fill="#061757"/>
      <path id="Path_808" data-name="Path 808" d="M394.247,102.827a7.375,7.375,0,1,1-2.952,10A7.378,7.378,0,0,1,394.247,102.827Z" transform="translate(-29.537 134.336)" fill="#061757"/>
      <path id="Path_809" data-name="Path 809" d="M402.971,107.493a7.581,7.581,0,1,1-3.032,10.282A7.581,7.581,0,0,1,402.971,107.493Z" transform="translate(-22.024 120.597)" fill="#061757"/>
      <path id="Path_810" data-name="Path 810" d="M411.77,114.647a1.753,1.753,0,1,1-.7,2.377A1.753,1.753,0,0,1,411.77,114.647Z" transform="translate(-11.7 109.669)" fill="#061757"/>
      <path id="Path_811" data-name="Path 811" d="M249.949,38.353a.567.567,0,1,1-.227.769A.569.569,0,0,1,249.949,38.353Z" transform="translate(-152.249 330.732)" fill="#061757"/>
      <path id="Path_812" data-name="Path 812" d="M258.67,42.869a1.135,1.135,0,1,1-.455,1.539A1.135,1.135,0,0,1,258.67,42.869Z" transform="translate(-144.904 316.825)" fill="#061757"/>
      <path id="Path_813" data-name="Path 813" d="M267.391,47.429a1.6,1.6,0,1,1-.64,2.168A1.6,1.6,0,0,1,267.391,47.429Z" transform="translate(-137.512 302.965)" fill="#061757"/>
      <path id="Path_814" data-name="Path 814" d="M276.112,51.987a2.063,2.063,0,1,1-.826,2.8A2.062,2.062,0,0,1,276.112,51.987Z" transform="translate(-130.119 289.108)" fill="#061757"/>
      <path id="Path_815" data-name="Path 815" d="M284.834,56.567a2.476,2.476,0,1,1-.99,3.358A2.476,2.476,0,0,1,284.834,56.567Z" transform="translate(-122.703 275.271)" fill="#061757"/>
      <path id="Path_816" data-name="Path 816" d="M293.555,61.127a2.94,2.94,0,1,1-1.176,3.987A2.938,2.938,0,0,1,293.555,61.127Z" transform="translate(-115.31 261.412)" fill="#061757"/>
      <path id="Path_817" data-name="Path 817" d="M302.277,65.687a3.4,3.4,0,1,1-1.363,4.616A3.4,3.4,0,0,1,302.277,65.687Z" transform="translate(-107.917 247.553)" fill="#061757"/>
      <path id="Path_818" data-name="Path 818" d="M311,70.288a3.765,3.765,0,1,1-1.507,5.107A3.767,3.767,0,0,1,311,70.288Z" transform="translate(-100.477 233.742)" fill="#061757"/>
      <path id="Path_819" data-name="Path 819" d="M319.72,74.846a4.229,4.229,0,1,1-1.692,5.737A4.229,4.229,0,0,1,319.72,74.846Z" transform="translate(-93.084 219.882)" fill="#061757"/>
      <path id="Path_820" data-name="Path 820" d="M328.442,79.426a4.642,4.642,0,1,1-1.857,6.3A4.644,4.644,0,0,1,328.442,79.426Z" transform="translate(-85.667 206.047)" fill="#061757"/>
      <path id="Path_821" data-name="Path 821" d="M337.164,84.008a5.054,5.054,0,1,1-2.023,6.857A5.053,5.053,0,0,1,337.164,84.008Z" transform="translate(-78.251 192.212)" fill="#061757"/>
      <path id="Path_822" data-name="Path 822" d="M345.885,88.588A5.467,5.467,0,1,1,343.7,96,5.468,5.468,0,0,1,345.885,88.588Z" transform="translate(-70.834 178.377)" fill="#061757"/>
      <path id="Path_823" data-name="Path 823" d="M354.608,93.147a5.931,5.931,0,1,1-2.374,8.045A5.931,5.931,0,0,1,354.608,93.147Z" transform="translate(-63.441 164.518)" fill="#061757"/>
      <path id="Path_824" data-name="Path 824" d="M363.331,97.77a6.24,6.24,0,1,1-2.5,8.465A6.241,6.241,0,0,1,363.331,97.77Z" transform="translate(-55.977 150.731)" fill="#061757"/>
      <path id="Path_825" data-name="Path 825" d="M372.052,102.351a6.653,6.653,0,1,1-2.662,9.024A6.652,6.652,0,0,1,372.052,102.351Z" transform="translate(-48.56 136.895)" fill="#061757"/>
      <path id="Path_826" data-name="Path 826" d="M380.775,106.952a7.014,7.014,0,1,1-2.808,9.515A7.014,7.014,0,0,1,380.775,106.952Z" transform="translate(-41.119 123.084)" fill="#061757"/>
      <path id="Path_827" data-name="Path 827" d="M389.5,111.554a7.375,7.375,0,1,1-2.952,10A7.376,7.376,0,0,1,389.5,111.554Z" transform="translate(-33.678 109.273)" fill="#061757"/>
      <path id="Path_828" data-name="Path 828" d="M398.219,116.155a7.736,7.736,0,1,1-3.1,10.494A7.736,7.736,0,0,1,398.219,116.155Z" transform="translate(-26.238 95.462)" fill="#061757"/>
      <path id="Path_829" data-name="Path 829" d="M406.96,121.374a6.6,6.6,0,1,1-2.641,8.955A6.6,6.6,0,0,1,406.96,121.374Z" transform="translate(-18.1 82.348)" fill="#061757"/>
      <path id="Path_830" data-name="Path 830" d="M415.767,128.827a.051.051,0,0,1,.049.09.05.05,0,0,1-.069-.021A.052.052,0,0,1,415.767,128.827Z" transform="translate(-7.44 71.755)" fill="#061757"/>
      <path id="Path_831" data-name="Path 831" d="M236.478,42.52a.1.1,0,0,1,.139.041.1.1,0,0,1-.041.14.1.1,0,0,1-.138-.041A.1.1,0,0,1,236.478,42.52Z" transform="translate(-163.783 319.529)" fill="#061757"/>
      <path id="Path_832" data-name="Path 832" d="M245.2,47.038a.67.67,0,1,1-.27.908A.667.667,0,0,1,245.2,47.038Z" transform="translate(-156.439 305.621)" fill="#061757"/>
      <path id="Path_833" data-name="Path 833" d="M253.919,51.6a1.135,1.135,0,1,1-.455,1.539A1.135,1.135,0,0,1,253.919,51.6Z" transform="translate(-149.047 291.762)" fill="#061757"/>
      <path id="Path_834" data-name="Path 834" d="M262.639,56.156a1.6,1.6,0,1,1-.638,2.17A1.6,1.6,0,0,1,262.639,56.156Z" transform="translate(-141.654 277.903)" fill="#061757"/>
      <path id="Path_835" data-name="Path 835" d="M271.362,60.714a2.063,2.063,0,1,1-.825,2.8A2.063,2.063,0,0,1,271.362,60.714Z" transform="translate(-134.261 264.045)" fill="#061757"/>
      <path id="Path_836" data-name="Path 836" d="M280.083,65.294a2.476,2.476,0,1,1-.99,3.358A2.476,2.476,0,0,1,280.083,65.294Z" transform="translate(-126.844 250.208)" fill="#061757"/>
      <path id="Path_837" data-name="Path 837" d="M288.805,69.854a2.94,2.94,0,1,1-1.177,3.987A2.939,2.939,0,0,1,288.805,69.854Z" transform="translate(-119.452 236.349)" fill="#061757"/>
      <path id="Path_838" data-name="Path 838" d="M297.526,74.413a3.4,3.4,0,1,1-1.363,4.616A3.4,3.4,0,0,1,297.526,74.413Z" transform="translate(-112.059 222.49)" fill="#061757"/>
      <path id="Path_839" data-name="Path 839" d="M306.249,79.015a3.765,3.765,0,1,1-1.507,5.106A3.764,3.764,0,0,1,306.249,79.015Z" transform="translate(-104.618 208.679)" fill="#061757"/>
      <path id="Path_840" data-name="Path 840" d="M314.969,83.574a4.229,4.229,0,1,1-1.692,5.735A4.229,4.229,0,0,1,314.969,83.574Z" transform="translate(-97.226 194.82)" fill="#061757"/>
      <path id="Path_841" data-name="Path 841" d="M323.692,88.153a4.642,4.642,0,1,1-1.859,6.3A4.642,4.642,0,0,1,323.692,88.153Z" transform="translate(-89.809 180.984)" fill="#061757"/>
      <path id="Path_842" data-name="Path 842" d="M332.413,92.735a5.054,5.054,0,1,1-2.022,6.857A5.055,5.055,0,0,1,332.413,92.735Z" transform="translate(-82.392 167.149)" fill="#061757"/>
      <path id="Path_843" data-name="Path 843" d="M341.135,97.315a5.467,5.467,0,1,1-2.188,7.416A5.466,5.466,0,0,1,341.135,97.315Z" transform="translate(-74.976 153.314)" fill="#061757"/>
      <path id="Path_844" data-name="Path 844" d="M349.856,101.874a5.931,5.931,0,1,1-2.374,8.045A5.931,5.931,0,0,1,349.856,101.874Z" transform="translate(-67.583 139.455)" fill="#061757"/>
      <path id="Path_845" data-name="Path 845" d="M358.579,106.5a6.24,6.24,0,1,1-2.5,8.465A6.241,6.241,0,0,1,358.579,106.5Z" transform="translate(-60.118 125.668)" fill="#061757"/>
      <path id="Path_846" data-name="Path 846" d="M367.3,111.078a6.653,6.653,0,1,1-2.664,9.024A6.652,6.652,0,0,1,367.3,111.078Z" transform="translate(-52.702 111.832)" fill="#061757"/>
      <circle id="Ellipse_22" data-name="Ellipse 22" cx="7.014" cy="7.014" r="7.014" transform="translate(329.374 211.148) rotate(16.438)" fill="#061757"/>
      <path id="Path_847" data-name="Path 847" d="M384.747,120.28a7.375,7.375,0,1,1-2.952,10A7.376,7.376,0,0,1,384.747,120.28Z" transform="translate(-37.821 84.21)" fill="#061757"/>
      <path id="Path_848" data-name="Path 848" d="M393.469,124.882a7.736,7.736,0,1,1-3.1,10.494A7.737,7.737,0,0,1,393.469,124.882Z" transform="translate(-30.38 70.399)" fill="#061757"/>
      <path id="Path_849" data-name="Path 849" d="M402.192,129.5a8.046,8.046,0,1,1-3.22,10.915A8.046,8.046,0,0,1,402.192,129.5Z" transform="translate(-22.915 56.611)" fill="#061757"/>
      <path id="Path_850" data-name="Path 850" d="M410.989,136.575a2.423,2.423,0,1,1-.971,3.287A2.423,2.423,0,0,1,410.989,136.575Z" transform="translate(-12.687 45.588)" fill="#061757"/>
      <path id="Path_851" data-name="Path 851" d="M231.727,51.2a.206.206,0,1,1-.082.281A.206.206,0,0,1,231.727,51.2Z" transform="translate(-167.974 294.418)" fill="#061757"/>
      <path id="Path_852" data-name="Path 852" d="M240.447,55.765a.671.671,0,1,1-.268.91A.67.67,0,0,1,240.447,55.765Z" transform="translate(-160.581 280.559)" fill="#061757"/>
      <path id="Path_853" data-name="Path 853" d="M249.167,60.323a1.135,1.135,0,1,1-.453,1.541A1.137,1.137,0,0,1,249.167,60.323Z" transform="translate(-153.188 266.699)" fill="#061757"/>
      <path id="Path_854" data-name="Path 854" d="M257.89,64.883a1.6,1.6,0,1,1-.64,2.17A1.6,1.6,0,0,1,257.89,64.883Z" transform="translate(-145.796 252.84)" fill="#061757"/>
      <path id="Path_855" data-name="Path 855" d="M266.611,69.441a2.063,2.063,0,1,1-.826,2.8A2.062,2.062,0,0,1,266.611,69.441Z" transform="translate(-138.403 238.982)" fill="#061757"/>
      <path id="Path_856" data-name="Path 856" d="M275.333,74.023a2.475,2.475,0,1,1-.992,3.356A2.474,2.474,0,0,1,275.333,74.023Z" transform="translate(-130.987 225.146)" fill="#061757"/>
      <path id="Path_857" data-name="Path 857" d="M284.054,78.58a2.94,2.94,0,1,1-1.176,3.987A2.94,2.94,0,0,1,284.054,78.58Z" transform="translate(-123.594 211.287)" fill="#061757"/>
      <ellipse id="Ellipse_23" data-name="Ellipse 23" cx="3.404" cy="3.404" rx="3.404" ry="3.404" transform="translate(174.798 280.153)" fill="#061757"/>
      <path id="Path_858" data-name="Path 858" d="M301.5,87.742a3.765,3.765,0,1,1-1.507,5.106A3.764,3.764,0,0,1,301.5,87.742Z" transform="translate(-108.76 183.616)" fill="#061757"/>
      <path id="Path_859" data-name="Path 859" d="M310.22,92.3a4.228,4.228,0,1,1-1.694,5.735A4.227,4.227,0,0,1,310.22,92.3Z" transform="translate(-101.368 169.757)" fill="#061757"/>
      <path id="Path_860" data-name="Path 860" d="M318.941,96.88a4.642,4.642,0,1,1-1.857,6.3A4.644,4.644,0,0,1,318.941,96.88Z" transform="translate(-93.951 155.922)" fill="#061757"/>
      <path id="Path_861" data-name="Path 861" d="M327.663,101.462a5.054,5.054,0,1,1-2.023,6.857A5.053,5.053,0,0,1,327.663,101.462Z" transform="translate(-86.535 142.086)" fill="#061757"/>
      <path id="Path_862" data-name="Path 862" d="M336.384,106.042a5.467,5.467,0,1,1-2.186,7.416A5.468,5.468,0,0,1,336.384,106.042Z" transform="translate(-79.118 128.251)" fill="#061757"/>
      <path id="Path_863" data-name="Path 863" d="M345.106,110.6a5.931,5.931,0,1,1-2.374,8.045A5.931,5.931,0,0,1,345.106,110.6Z" transform="translate(-71.725 114.392)" fill="#061757"/>
      <path id="Path_864" data-name="Path 864" d="M353.83,115.224a6.24,6.24,0,1,1-2.5,8.465A6.241,6.241,0,0,1,353.83,115.224Z" transform="translate(-64.261 100.605)" fill="#061757"/>
      <path id="Path_865" data-name="Path 865" d="M362.551,119.8a6.653,6.653,0,1,1-2.662,9.024A6.652,6.652,0,0,1,362.551,119.8Z" transform="translate(-56.844 86.769)" fill="#061757"/>
      <path id="Path_866" data-name="Path 866" d="M371.274,124.406a7.014,7.014,0,1,1-2.808,9.515A7.015,7.015,0,0,1,371.274,124.406Z" transform="translate(-49.403 72.959)" fill="#061757"/>
      <path id="Path_867" data-name="Path 867" d="M380,129.007a7.375,7.375,0,1,1-2.952,10A7.376,7.376,0,0,1,380,129.007Z" transform="translate(-41.963 59.148)" fill="#061757"/>
      <path id="Path_868" data-name="Path 868" d="M388.718,133.609a7.736,7.736,0,1,1-3.1,10.494A7.736,7.736,0,0,1,388.718,133.609Z" transform="translate(-34.522 45.336)" fill="#061757"/>
      <path id="Path_869" data-name="Path 869" d="M397.441,138.231a8.046,8.046,0,1,1-3.22,10.915A8.046,8.046,0,0,1,397.441,138.231Z" transform="translate(-27.057 31.549)" fill="#061757"/>
      <path id="Path_870" data-name="Path 870" d="M406.2,144.088a5.364,5.364,0,1,1-2.147,7.276A5.366,5.366,0,0,1,406.2,144.088Z" transform="translate(-18.199 19.155)" fill="#061757"/>
      <path id="Path_871" data-name="Path 871" d="M226.975,59.932a.207.207,0,1,1-.082.281A.208.208,0,0,1,226.975,59.932Z" transform="translate(-172.115 269.356)" fill="#061757"/>
      <path id="Path_872" data-name="Path 872" d="M235.7,64.492a.67.67,0,1,1-.27.91A.667.667,0,0,1,235.7,64.492Z" transform="translate(-164.723 255.496)" fill="#061757"/>
      <path id="Path_873" data-name="Path 873" d="M244.418,69.05a1.135,1.135,0,1,1-.455,1.541A1.135,1.135,0,0,1,244.418,69.05Z" transform="translate(-157.33 241.636)" fill="#061757"/>
      <path id="Path_874" data-name="Path 874" d="M253.139,73.609a1.6,1.6,0,1,1-.64,2.17A1.6,1.6,0,0,1,253.139,73.609Z" transform="translate(-149.938 227.778)" fill="#061757"/>
      <path id="Path_875" data-name="Path 875" d="M261.861,78.168a2.063,2.063,0,1,1-.826,2.8A2.063,2.063,0,0,1,261.861,78.168Z" transform="translate(-142.545 213.919)" fill="#061757"/>
      <path id="Path_876" data-name="Path 876" d="M270.582,82.75a2.476,2.476,0,1,1-.99,3.356A2.473,2.473,0,0,1,270.582,82.75Z" transform="translate(-135.128 200.083)" fill="#061757"/>
      <path id="Path_877" data-name="Path 877" d="M279.3,87.307a2.94,2.94,0,1,1-1.177,3.989A2.941,2.941,0,0,1,279.3,87.307Z" transform="translate(-127.736 186.224)" fill="#061757"/>
      <path id="Path_878" data-name="Path 878" d="M288.025,91.867a3.4,3.4,0,1,1-1.363,4.618A3.406,3.406,0,0,1,288.025,91.867Z" transform="translate(-120.343 172.365)" fill="#061757"/>
      <path id="Path_879" data-name="Path 879" d="M296.748,96.469a3.765,3.765,0,1,1-1.507,5.106A3.765,3.765,0,0,1,296.748,96.469Z" transform="translate(-112.902 158.553)" fill="#061757"/>
      <path id="Path_880" data-name="Path 880" d="M305.469,101.028a4.228,4.228,0,1,1-1.692,5.735A4.229,4.229,0,0,1,305.469,101.028Z" transform="translate(-105.51 144.694)" fill="#061757"/>
      <path id="Path_881" data-name="Path 881" d="M314.191,105.609a4.641,4.641,0,1,1-1.859,6.3A4.64,4.64,0,0,1,314.191,105.609Z" transform="translate(-98.093 130.859)" fill="#061757"/>
      <path id="Path_882" data-name="Path 882" d="M322.912,110.189a5.054,5.054,0,1,1-2.022,6.857A5.055,5.055,0,0,1,322.912,110.189Z" transform="translate(-90.676 117.023)" fill="#061757"/>
      <path id="Path_883" data-name="Path 883" d="M331.634,114.769a5.467,5.467,0,1,1-2.188,7.416A5.466,5.466,0,0,1,331.634,114.769Z" transform="translate(-83.26 103.188)" fill="#061757"/>
      <path id="Path_884" data-name="Path 884" d="M340.355,119.328a5.931,5.931,0,1,1-2.374,8.045A5.931,5.931,0,0,1,340.355,119.328Z" transform="translate(-75.867 89.329)" fill="#061757"/>
      <path id="Path_885" data-name="Path 885" d="M349.078,123.95a6.241,6.241,0,1,1-2.5,8.465A6.241,6.241,0,0,1,349.078,123.95Z" transform="translate(-68.402 75.542)" fill="#061757"/>
      <path id="Path_886" data-name="Path 886" d="M357.8,128.531a6.653,6.653,0,1,1-2.664,9.024A6.654,6.654,0,0,1,357.8,128.531Z" transform="translate(-60.985 61.707)" fill="#061757"/>
      <path id="Path_887" data-name="Path 887" d="M366.522,133.133a7.014,7.014,0,1,1-2.806,9.515A7.015,7.015,0,0,1,366.522,133.133Z" transform="translate(-53.545 47.896)" fill="#061757"/>
      <path id="Path_888" data-name="Path 888" d="M375.246,137.734a7.375,7.375,0,1,1-2.952,10.005A7.376,7.376,0,0,1,375.246,137.734Z" transform="translate(-46.104 34.085)" fill="#061757"/>
      <path id="Path_889" data-name="Path 889" d="M383.968,142.336a7.736,7.736,0,1,1-3.1,10.494A7.739,7.739,0,0,1,383.968,142.336Z" transform="translate(-38.663 20.273)" fill="#061757"/>
      <path id="Path_890" data-name="Path 890" d="M392.691,146.959a8.046,8.046,0,1,1-3.22,10.913A8.045,8.045,0,0,1,392.691,146.959Z" transform="translate(-31.199 6.487)" fill="#061757"/>
      <path id="Path_891" data-name="Path 891" d="M401.427,152.007a7.323,7.323,0,1,1-2.931,9.934A7.324,7.324,0,0,1,401.427,152.007Z" transform="translate(-23.254 -6.82)" fill="#061757"/>
      <path id="Path_892" data-name="Path 892" d="M222.226,68.659a.206.206,0,0,1,.2.363.206.206,0,1,1-.2-.363Z" transform="translate(-176.258 244.293)" fill="#061757"/>
      <path id="Path_893" data-name="Path 893" d="M230.946,73.219a.67.67,0,1,1-.268.91A.67.67,0,0,1,230.946,73.219Z" transform="translate(-168.865 230.433)" fill="#061757"/>
      <path id="Path_894" data-name="Path 894" d="M239.667,77.777a1.135,1.135,0,1,1-.453,1.541A1.137,1.137,0,0,1,239.667,77.777Z" transform="translate(-161.472 216.573)" fill="#061757"/>
      <path id="Path_895" data-name="Path 895" d="M248.389,82.335a1.6,1.6,0,1,1-.64,2.17A1.6,1.6,0,0,1,248.389,82.335Z" transform="translate(-154.08 202.715)" fill="#061757"/>
      <path id="Path_896" data-name="Path 896" d="M257.109,86.9a2.063,2.063,0,1,1-.826,2.8A2.062,2.062,0,0,1,257.109,86.9Z" transform="translate(-146.687 188.856)" fill="#061757"/>
      <path id="Path_897" data-name="Path 897" d="M265.833,91.477a2.475,2.475,0,1,1-.992,3.358A2.474,2.474,0,0,1,265.833,91.477Z" transform="translate(-139.27 175.02)" fill="#061757"/>
      <path id="Path_898" data-name="Path 898" d="M274.553,96.034a2.94,2.94,0,1,1-1.176,3.989A2.94,2.94,0,0,1,274.553,96.034Z" transform="translate(-131.877 161.161)" fill="#061757"/>
      <path id="Path_899" data-name="Path 899" d="M283.273,100.593a3.4,3.4,0,1,1-1.361,4.618A3.4,3.4,0,0,1,283.273,100.593Z" transform="translate(-124.485 147.302)" fill="#061757"/>
      <path id="Path_900" data-name="Path 900" d="M292,105.2a3.765,3.765,0,1,1-1.507,5.107A3.764,3.764,0,0,1,292,105.2Z" transform="translate(-117.044 133.49)" fill="#061757"/>
      <path id="Path_901" data-name="Path 901" d="M300.719,109.755a4.228,4.228,0,1,1-1.694,5.735A4.227,4.227,0,0,1,300.719,109.755Z" transform="translate(-109.652 119.631)" fill="#061757"/>
      <path id="Path_902" data-name="Path 902" d="M309.44,114.335a4.642,4.642,0,1,1-1.857,6.3A4.642,4.642,0,0,1,309.44,114.335Z" transform="translate(-102.235 105.797)" fill="#061757"/>
      <path id="Path_903" data-name="Path 903" d="M318.163,118.915a5.055,5.055,0,1,1-2.024,6.857A5.054,5.054,0,0,1,318.163,118.915Z" transform="translate(-94.818 91.961)" fill="#061757"/>
      <path id="Path_904" data-name="Path 904" d="M326.883,123.5a5.468,5.468,0,1,1-2.188,7.416A5.468,5.468,0,0,1,326.883,123.5Z" transform="translate(-87.402 78.126)" fill="#061757"/>
      <path id="Path_905" data-name="Path 905" d="M335.605,128.055a5.931,5.931,0,1,1-2.374,8.045A5.928,5.928,0,0,1,335.605,128.055Z" transform="translate(-80.009 64.267)" fill="#061757"/>
      <path id="Path_906" data-name="Path 906" d="M344.329,132.677a6.241,6.241,0,1,1-2.5,8.465A6.241,6.241,0,0,1,344.329,132.677Z" transform="translate(-72.544 50.479)" fill="#061757"/>
      <path id="Path_907" data-name="Path 907" d="M353.05,137.258a6.654,6.654,0,1,1-2.662,9.024A6.653,6.653,0,0,1,353.05,137.258Z" transform="translate(-65.127 36.644)" fill="#061757"/>
      <path id="Path_908" data-name="Path 908" d="M361.773,141.86a7.014,7.014,0,1,1-2.808,9.515A7.013,7.013,0,0,1,361.773,141.86Z" transform="translate(-57.687 22.833)" fill="#061757"/>
      <path id="Path_909" data-name="Path 909" d="M370.5,146.461a7.375,7.375,0,1,1-2.952,10.005A7.376,7.376,0,0,1,370.5,146.461Z" transform="translate(-50.246 9.022)" fill="#061757"/>
      <path id="Path_910" data-name="Path 910" d="M379.217,151.063a7.736,7.736,0,1,1-3.1,10.494A7.738,7.738,0,0,1,379.217,151.063Z" transform="translate(-42.805 -4.79)" fill="#061757"/>
      <path id="Path_911" data-name="Path 911" d="M387.941,155.686a8.046,8.046,0,1,1-3.22,10.913A8.045,8.045,0,0,1,387.941,155.686Z" transform="translate(-35.341 -18.576)" fill="#061757"/>
      <path id="Path_912" data-name="Path 912" d="M396.664,160.31a8.355,8.355,0,1,1-3.343,11.332A8.354,8.354,0,0,1,396.664,160.31Z" transform="translate(-27.876 -32.364)" fill="#061757"/>
      <path id="Path_913" data-name="Path 913" d="M217.474,77.386a.206.206,0,1,1,.2.363.206.206,0,0,1-.2-.363Z" transform="translate(-180.399 219.23)" fill="#061757"/>
      <path id="Path_914" data-name="Path 914" d="M226.194,81.946a.671.671,0,1,1-.268.91A.669.669,0,0,1,226.194,81.946Z" transform="translate(-173.006 205.37)" fill="#061757"/>
      <path id="Path_915" data-name="Path 915" d="M234.917,86.505a1.134,1.134,0,1,1-.455,1.539A1.132,1.132,0,0,1,234.917,86.505Z" transform="translate(-165.614 191.511)" fill="#061757"/>
      <path id="Path_916" data-name="Path 916" d="M243.638,91.062a1.6,1.6,0,1,1-.64,2.17A1.6,1.6,0,0,1,243.638,91.062Z" transform="translate(-158.221 177.652)" fill="#061757"/>
      <path id="Path_917" data-name="Path 917" d="M252.36,95.622a2.063,2.063,0,1,1-.826,2.8A2.061,2.061,0,0,1,252.36,95.622Z" transform="translate(-150.828 163.793)" fill="#061757"/>
      <path id="Path_918" data-name="Path 918" d="M261.081,100.2a2.476,2.476,0,1,1-.99,3.358A2.475,2.475,0,0,1,261.081,100.2Z" transform="translate(-143.412 149.958)" fill="#061757"/>
      <path id="Path_919" data-name="Path 919" d="M269.8,104.761a2.94,2.94,0,1,1-1.177,3.989A2.941,2.941,0,0,1,269.8,104.761Z" transform="translate(-136.02 136.098)" fill="#061757"/>
      <path id="Path_920" data-name="Path 920" d="M278.524,109.32a3.4,3.4,0,1,1-1.363,4.618A3.406,3.406,0,0,1,278.524,109.32Z" transform="translate(-128.627 122.239)" fill="#061757"/>
      <path id="Path_921" data-name="Path 921" d="M287.247,113.923a3.765,3.765,0,1,1-1.507,5.106A3.764,3.764,0,0,1,287.247,113.923Z" transform="translate(-121.186 108.427)" fill="#061757"/>
      <path id="Path_922" data-name="Path 922" d="M295.967,118.482a4.229,4.229,0,1,1-1.692,5.735A4.229,4.229,0,0,1,295.967,118.482Z" transform="translate(-113.794 94.569)" fill="#061757"/>
      <path id="Path_923" data-name="Path 923" d="M304.69,123.062a4.642,4.642,0,1,1-1.859,6.3A4.64,4.64,0,0,1,304.69,123.062Z" transform="translate(-106.377 80.734)" fill="#061757"/>
      <path id="Path_924" data-name="Path 924" d="M313.411,127.642a5.054,5.054,0,1,1-2.022,6.855A5.055,5.055,0,0,1,313.411,127.642Z" transform="translate(-98.96 66.899)" fill="#061757"/>
      <path id="Path_925" data-name="Path 925" d="M322.133,132.222a5.467,5.467,0,1,1-2.188,7.416A5.466,5.466,0,0,1,322.133,132.222Z" transform="translate(-91.543 53.063)" fill="#061757"/>
      <path id="Path_926" data-name="Path 926" d="M330.854,136.782a5.931,5.931,0,1,1-2.373,8.045A5.931,5.931,0,0,1,330.854,136.782Z" transform="translate(-84.151 39.204)" fill="#061757"/>
      <path id="Path_927" data-name="Path 927" d="M339.578,141.4a6.241,6.241,0,1,1-2.5,8.465A6.241,6.241,0,0,1,339.578,141.4Z" transform="translate(-76.686 25.417)" fill="#061757"/>
      <path id="Path_928" data-name="Path 928" d="M348.3,145.985a6.653,6.653,0,1,1-2.664,9.024A6.653,6.653,0,0,1,348.3,145.985Z" transform="translate(-69.269 11.581)" fill="#061757"/>
      <path id="Path_929" data-name="Path 929" d="M357.021,150.586a7.014,7.014,0,1,1-2.806,9.515A7.015,7.015,0,0,1,357.021,150.586Z" transform="translate(-61.829 -2.23)" fill="#061757"/>
      <path id="Path_930" data-name="Path 930" d="M365.745,155.188a7.375,7.375,0,1,1-2.952,10.005A7.376,7.376,0,0,1,365.745,155.188Z" transform="translate(-54.388 -16.041)" fill="#061757"/>
      <path id="Path_931" data-name="Path 931" d="M374.468,159.789a7.736,7.736,0,1,1-3.1,10.494A7.739,7.739,0,0,1,374.468,159.789Z" transform="translate(-46.947 -29.852)" fill="#061757"/>
      <ellipse id="Ellipse_24" data-name="Ellipse 24" cx="8.046" cy="8.046" rx="8.046" ry="8.046" transform="translate(342.114 117.847) rotate(16.438)" fill="#061757"/>
      <path id="Path_932" data-name="Path 932" d="M391.914,169.036a8.355,8.355,0,1,1-3.345,11.332A8.354,8.354,0,0,1,391.914,169.036Z" transform="translate(-32.018 -57.427)" fill="#061757"/>
      <path id="Path_933" data-name="Path 933" d="M212.725,86.113a.206.206,0,0,1,.2.363.206.206,0,1,1-.2-.363Z" transform="translate(-184.541 194.167)" fill="#061757"/>
      <path id="Path_934" data-name="Path 934" d="M221.445,90.672a.67.67,0,1,1-.268.91A.671.671,0,0,1,221.445,90.672Z" transform="translate(-177.149 180.308)" fill="#061757"/>
      <path id="Path_935" data-name="Path 935" d="M230.166,95.232a1.134,1.134,0,1,1-.453,1.539A1.134,1.134,0,0,1,230.166,95.232Z" transform="translate(-169.756 166.449)" fill="#061757"/>
      <path id="Path_936" data-name="Path 936" d="M238.888,99.789a1.6,1.6,0,1,1-.64,2.17A1.6,1.6,0,0,1,238.888,99.789Z" transform="translate(-162.363 152.589)" fill="#061757"/>
      <path id="Path_937" data-name="Path 937" d="M247.609,104.349a2.063,2.063,0,1,1-.825,2.8A2.062,2.062,0,0,1,247.609,104.349Z" transform="translate(-154.971 138.73)" fill="#061757"/>
      <path id="Path_938" data-name="Path 938" d="M256.332,108.929a2.475,2.475,0,1,1-.992,3.358A2.475,2.475,0,0,1,256.332,108.929Z" transform="translate(-147.554 124.895)" fill="#061757"/>
      <path id="Path_939" data-name="Path 939" d="M265.052,113.488a2.94,2.94,0,1,1-1.177,3.989A2.94,2.94,0,0,1,265.052,113.488Z" transform="translate(-140.161 111.035)" fill="#061757"/>
      <path id="Path_940" data-name="Path 940" d="M273.773,118.047a3.4,3.4,0,1,1-1.361,4.618A3.405,3.405,0,0,1,273.773,118.047Z" transform="translate(-132.769 97.176)" fill="#061757"/>
      <path id="Path_941" data-name="Path 941" d="M282.5,122.65a3.765,3.765,0,1,1-1.507,5.107A3.764,3.764,0,0,1,282.5,122.65Z" transform="translate(-125.328 83.364)" fill="#061757"/>
      <path id="Path_942" data-name="Path 942" d="M291.216,127.209a4.23,4.23,0,1,1-1.692,5.735A4.229,4.229,0,0,1,291.216,127.209Z" transform="translate(-117.935 69.506)" fill="#061757"/>
      <path id="Path_943" data-name="Path 943" d="M299.939,131.789a4.642,4.642,0,1,1-1.857,6.3A4.642,4.642,0,0,1,299.939,131.789Z" transform="translate(-110.519 55.671)" fill="#061757"/>
      <path id="Path_944" data-name="Path 944" d="M308.661,136.369a5.054,5.054,0,1,1-2.023,6.855A5.053,5.053,0,0,1,308.661,136.369Z" transform="translate(-103.102 41.836)" fill="#061757"/>
      <path id="Path_945" data-name="Path 945" d="M317.383,140.949a5.468,5.468,0,1,1-2.188,7.416A5.47,5.47,0,0,1,317.383,140.949Z" transform="translate(-95.686 28)" fill="#061757"/>
      <path id="Path_946" data-name="Path 946" d="M326.1,145.509a5.931,5.931,0,1,1-2.375,8.045A5.929,5.929,0,0,1,326.1,145.509Z" transform="translate(-88.293 14.141)" fill="#061757"/>
      <path id="Path_947" data-name="Path 947" d="M334.826,150.131a6.241,6.241,0,1,1-2.5,8.465A6.242,6.242,0,0,1,334.826,150.131Z" transform="translate(-80.828 0.354)" fill="#061757"/>
      <path id="Path_948" data-name="Path 948" d="M343.549,154.711a6.654,6.654,0,1,1-2.662,9.024A6.654,6.654,0,0,1,343.549,154.711Z" transform="translate(-73.411 -13.481)" fill="#061757"/>
      <path id="Path_949" data-name="Path 949" d="M352.272,159.313a7.015,7.015,0,1,1-2.808,9.515A7.013,7.013,0,0,1,352.272,159.313Z" transform="translate(-65.971 -27.292)" fill="#061757"/>
      <path id="Path_950" data-name="Path 950" d="M360.993,163.915a7.375,7.375,0,1,1-2.95,10.005A7.378,7.378,0,0,1,360.993,163.915Z" transform="translate(-58.53 -41.104)" fill="#061757"/>
      <path id="Path_951" data-name="Path 951" d="M369.716,168.518a7.736,7.736,0,1,1-3.1,10.492A7.736,7.736,0,0,1,369.716,168.518Z" transform="translate(-51.089 -54.915)" fill="#061757"/>
      <path id="Path_952" data-name="Path 952" d="M378.439,173.14a8.046,8.046,0,1,1-3.22,10.913A8.045,8.045,0,0,1,378.439,173.14Z" transform="translate(-43.625 -68.702)" fill="#061757"/>
      <path id="Path_953" data-name="Path 953" d="M387.163,177.763A8.355,8.355,0,1,1,383.82,189.1,8.354,8.354,0,0,1,387.163,177.763Z" transform="translate(-36.16 -82.489)" fill="#061757"/>
      <path id="Path_954" data-name="Path 954" d="M207.973,94.84a.206.206,0,1,1-.082.281A.206.206,0,0,1,207.973,94.84Z" transform="translate(-188.683 169.104)" fill="#061757"/>
      <path id="Path_955" data-name="Path 955" d="M216.694,99.4a.671.671,0,1,1-.268.91A.671.671,0,0,1,216.694,99.4Z" transform="translate(-181.291 155.245)" fill="#061757"/>
      <path id="Path_956" data-name="Path 956" d="M225.416,103.959a1.134,1.134,0,1,1-.455,1.539A1.134,1.134,0,0,1,225.416,103.959Z" transform="translate(-173.898 141.386)" fill="#061757"/>
      <path id="Path_957" data-name="Path 957" d="M234.137,108.516a1.6,1.6,0,1,1-.64,2.17A1.6,1.6,0,0,1,234.137,108.516Z" transform="translate(-166.505 127.526)" fill="#061757"/>
      <path id="Path_958" data-name="Path 958" d="M242.859,113.076a2.063,2.063,0,1,1-.827,2.8A2.061,2.061,0,0,1,242.859,113.076Z" transform="translate(-159.113 113.667)" fill="#061757"/>
      <path id="Path_959" data-name="Path 959" d="M251.58,117.656a2.476,2.476,0,1,1-.99,3.358A2.477,2.477,0,0,1,251.58,117.656Z" transform="translate(-151.696 99.832)" fill="#061757"/>
      <path id="Path_960" data-name="Path 960" d="M260.3,122.216a2.939,2.939,0,1,1-1.175,3.987A2.94,2.94,0,0,1,260.3,122.216Z" transform="translate(-144.303 85.973)" fill="#061757"/>
      <ellipse id="Ellipse_25" data-name="Ellipse 25" cx="3.404" cy="3.404" rx="3.404" ry="3.404" transform="translate(130.335 198.474)" fill="#061757"/>
      <path id="Path_961" data-name="Path 961" d="M277.746,131.376a3.765,3.765,0,1,1-1.507,5.106A3.766,3.766,0,0,1,277.746,131.376Z" transform="translate(-129.47 58.302)" fill="#061757"/>
      <path id="Path_962" data-name="Path 962" d="M286.467,135.936a4.229,4.229,0,1,1-1.692,5.735A4.227,4.227,0,0,1,286.467,135.936Z" transform="translate(-122.077 44.443)" fill="#061757"/>
      <path id="Path_963" data-name="Path 963" d="M295.189,140.516a4.642,4.642,0,1,1-1.859,6.3A4.64,4.64,0,0,1,295.189,140.516Z" transform="translate(-114.661 30.608)" fill="#061757"/>
      <path id="Path_964" data-name="Path 964" d="M303.91,145.1a5.054,5.054,0,1,1-2.023,6.855A5.055,5.055,0,0,1,303.91,145.1Z" transform="translate(-107.244 16.773)" fill="#061757"/>
      <path id="Path_965" data-name="Path 965" d="M312.633,149.676a5.467,5.467,0,1,1-2.188,7.416A5.468,5.468,0,0,1,312.633,149.676Z" transform="translate(-99.827 2.937)" fill="#061757"/>
      <path id="Path_966" data-name="Path 966" d="M321.353,154.236a5.931,5.931,0,1,1-2.374,8.045A5.931,5.931,0,0,1,321.353,154.236Z" transform="translate(-92.435 -10.922)" fill="#061757"/>
      <path id="Path_967" data-name="Path 967" d="M330.077,158.858a6.241,6.241,0,1,1-2.5,8.467A6.24,6.24,0,0,1,330.077,158.858Z" transform="translate(-84.97 -24.709)" fill="#061757"/>
      <path id="Path_968" data-name="Path 968" d="M338.8,163.438a6.654,6.654,0,1,1-2.662,9.024A6.656,6.656,0,0,1,338.8,163.438Z" transform="translate(-77.553 -38.544)" fill="#061757"/>
      <path id="Path_969" data-name="Path 969" d="M347.52,168.04a7.015,7.015,0,1,1-2.806,9.515A7.015,7.015,0,0,1,347.52,168.04Z" transform="translate(-70.112 -52.355)" fill="#061757"/>
      <path id="Path_970" data-name="Path 970" d="M356.243,172.642a7.375,7.375,0,1,1-2.952,10.005A7.376,7.376,0,0,1,356.243,172.642Z" transform="translate(-62.672 -66.167)" fill="#061757"/>
      <path id="Path_971" data-name="Path 971" d="M364.967,177.243a7.736,7.736,0,1,1-3.1,10.494A7.738,7.738,0,0,1,364.967,177.243Z" transform="translate(-55.231 -79.978)" fill="#061757"/>
      <path id="Path_972" data-name="Path 972" d="M373.69,181.867a8.046,8.046,0,1,1-3.221,10.913A8.046,8.046,0,0,1,373.69,181.867Z" transform="translate(-47.767 -93.765)" fill="#061757"/>
      <path id="Path_973" data-name="Path 973" d="M382.424,186.873a7.426,7.426,0,1,1-2.973,10.073A7.425,7.425,0,0,1,382.424,186.873Z" transform="translate(-39.869 -107.119)" fill="#061757"/>
      <path id="Path_974" data-name="Path 974" d="M203.222,103.567a.207.207,0,1,1-.082.281A.208.208,0,0,1,203.222,103.567Z" transform="translate(-192.825 144.041)" fill="#061757"/>
      <path id="Path_975" data-name="Path 975" d="M211.944,108.126a.67.67,0,1,1-.27.91A.671.671,0,0,1,211.944,108.126Z" transform="translate(-185.433 130.182)" fill="#061757"/>
      <path id="Path_976" data-name="Path 976" d="M220.665,112.685a1.134,1.134,0,1,1-.453,1.539A1.134,1.134,0,0,1,220.665,112.685Z" transform="translate(-178.04 116.323)" fill="#061757"/>
      <path id="Path_977" data-name="Path 977" d="M229.387,117.243a1.6,1.6,0,1,1-.64,2.169A1.6,1.6,0,0,1,229.387,117.243Z" transform="translate(-170.647 102.464)" fill="#061757"/>
      <path id="Path_978" data-name="Path 978" d="M238.108,121.8a2.063,2.063,0,1,1-.826,2.8A2.062,2.062,0,0,1,238.108,121.8Z" transform="translate(-163.255 88.604)" fill="#061757"/>
      <path id="Path_979" data-name="Path 979" d="M246.831,126.383a2.475,2.475,0,1,1-.992,3.358A2.475,2.475,0,0,1,246.831,126.383Z" transform="translate(-155.838 74.77)" fill="#061757"/>
      <path id="Path_980" data-name="Path 980" d="M255.551,130.943a2.939,2.939,0,1,1-1.177,3.987A2.938,2.938,0,0,1,255.551,130.943Z" transform="translate(-148.445 60.91)" fill="#061757"/>
      <path id="Path_981" data-name="Path 981" d="M264.272,135.5a3.4,3.4,0,1,1-1.361,4.618A3.405,3.405,0,0,1,264.272,135.5Z" transform="translate(-141.053 47.051)" fill="#061757"/>
      <path id="Path_982" data-name="Path 982" d="M272.995,140.1a3.765,3.765,0,1,1-1.507,5.106A3.766,3.766,0,0,1,272.995,140.1Z" transform="translate(-133.612 33.239)" fill="#061757"/>
      <path id="Path_983" data-name="Path 983" d="M281.715,144.663a4.23,4.23,0,1,1-1.692,5.737A4.229,4.229,0,0,1,281.715,144.663Z" transform="translate(-126.219 19.38)" fill="#061757"/>
      <path id="Path_984" data-name="Path 984" d="M290.438,149.243a4.642,4.642,0,1,1-1.857,6.3A4.639,4.639,0,0,1,290.438,149.243Z" transform="translate(-118.802 5.545)" fill="#061757"/>
      <path id="Path_985" data-name="Path 985" d="M299.16,153.823a5.054,5.054,0,1,1-2.024,6.855A5.054,5.054,0,0,1,299.16,153.823Z" transform="translate(-111.386 -8.289)" fill="#061757"/>
      <path id="Path_986" data-name="Path 986" d="M307.882,158.4a5.467,5.467,0,1,1-2.188,7.415A5.468,5.468,0,0,1,307.882,158.4Z" transform="translate(-103.969 -22.125)" fill="#061757"/>
      <path id="Path_987" data-name="Path 987" d="M316.6,162.962a5.931,5.931,0,1,1-2.374,8.045A5.932,5.932,0,0,1,316.6,162.962Z" transform="translate(-96.577 -35.984)" fill="#061757"/>
      <path id="Path_988" data-name="Path 988" d="M325.325,167.586a6.24,6.24,0,1,1-2.5,8.465A6.239,6.239,0,0,1,325.325,167.586Z" transform="translate(-89.112 -49.771)" fill="#061757"/>
      <path id="Path_989" data-name="Path 989" d="M334.048,172.165a6.654,6.654,0,1,1-2.662,9.024A6.655,6.655,0,0,1,334.048,172.165Z" transform="translate(-81.695 -63.607)" fill="#061757"/>
      <path id="Path_990" data-name="Path 990" d="M342.771,176.767a7.015,7.015,0,1,1-2.808,9.515A7.013,7.013,0,0,1,342.771,176.767Z" transform="translate(-74.254 -77.418)" fill="#061757"/>
      <path id="Path_991" data-name="Path 991" d="M351.492,181.368a7.376,7.376,0,1,1-2.95,10.005A7.378,7.378,0,0,1,351.492,181.368Z" transform="translate(-66.814 -91.23)" fill="#061757"/>
      <path id="Path_992" data-name="Path 992" d="M360.215,185.972a7.736,7.736,0,1,1-3.1,10.494A7.736,7.736,0,0,1,360.215,185.972Z" transform="translate(-59.373 -105.04)" fill="#061757"/>
      <path id="Path_993" data-name="Path 993" d="M368.939,190.594a8.046,8.046,0,1,1-3.22,10.913A8.045,8.045,0,0,1,368.939,190.594Z" transform="translate(-51.908 -118.827)" fill="#061757"/>
      <path id="Path_994" data-name="Path 994" d="M377.7,196.451a5.363,5.363,0,1,1-2.147,7.274A5.363,5.363,0,0,1,377.7,196.451Z" transform="translate(-43.05 -131.221)" fill="#061757"/>
      <path id="Path_995" data-name="Path 995" d="M198.473,112.337a.1.1,0,0,1,.1.182.1.1,0,0,1-.1-.182Z" transform="translate(-196.919 119.027)" fill="#061757"/>
      <path id="Path_996" data-name="Path 996" d="M207.193,116.852a.671.671,0,1,1-.268.91A.672.672,0,0,1,207.193,116.852Z" transform="translate(-189.574 105.12)" fill="#061757"/>
      <path id="Path_997" data-name="Path 997" d="M215.915,121.412a1.135,1.135,0,1,1-.455,1.539A1.134,1.134,0,0,1,215.915,121.412Z" transform="translate(-182.182 91.261)" fill="#061757"/>
      <path id="Path_998" data-name="Path 998" d="M224.636,125.97a1.6,1.6,0,1,1-.64,2.17A1.6,1.6,0,0,1,224.636,125.97Z" transform="translate(-174.789 77.401)" fill="#061757"/>
      <path id="Path_999" data-name="Path 999" d="M233.357,130.53a2.063,2.063,0,1,1-.826,2.8A2.064,2.064,0,0,1,233.357,130.53Z" transform="translate(-167.397 63.542)" fill="#061757"/>
      <path id="Path_1000" data-name="Path 1000" d="M242.079,135.11a2.476,2.476,0,1,1-.99,3.358A2.477,2.477,0,0,1,242.079,135.11Z" transform="translate(-159.98 49.707)" fill="#061757"/>
      <path id="Path_1001" data-name="Path 1001" d="M250.8,139.67a2.939,2.939,0,1,1-1.176,3.987A2.94,2.94,0,0,1,250.8,139.67Z" transform="translate(-152.587 35.847)" fill="#061757"/>
      <path id="Path_1002" data-name="Path 1002" d="M259.522,144.228a3.4,3.4,0,1,1-1.363,4.618A3.4,3.4,0,0,1,259.522,144.228Z" transform="translate(-145.194 21.988)" fill="#061757"/>
      <path id="Path_1003" data-name="Path 1003" d="M268.243,148.83a3.765,3.765,0,1,1-1.505,5.108A3.768,3.768,0,0,1,268.243,148.83Z" transform="translate(-137.754 8.177)" fill="#061757"/>
      <path id="Path_1004" data-name="Path 1004" d="M276.966,153.39a4.229,4.229,0,1,1-1.692,5.737A4.227,4.227,0,0,1,276.966,153.39Z" transform="translate(-130.361 -5.683)" fill="#061757"/>
      <path id="Path_1005" data-name="Path 1005" d="M285.686,157.97a4.642,4.642,0,1,1-1.857,6.3A4.642,4.642,0,0,1,285.686,157.97Z" transform="translate(-122.945 -19.518)" fill="#061757"/>
      <path id="Path_1006" data-name="Path 1006" d="M294.409,162.55a5.054,5.054,0,1,1-2.024,6.855A5.054,5.054,0,0,1,294.409,162.55Z" transform="translate(-115.528 -33.352)" fill="#061757"/>
      <path id="Path_1007" data-name="Path 1007" d="M303.132,167.13a5.466,5.466,0,1,1-2.188,7.415A5.467,5.467,0,0,1,303.132,167.13Z" transform="translate(-108.111 -47.187)" fill="#061757"/>
      <path id="Path_1008" data-name="Path 1008" d="M311.852,171.689a5.931,5.931,0,1,1-2.374,8.045A5.933,5.933,0,0,1,311.852,171.689Z" transform="translate(-100.719 -61.047)" fill="#061757"/>
      <path id="Path_1009" data-name="Path 1009" d="M320.576,176.313a6.24,6.24,0,1,1-2.5,8.465A6.239,6.239,0,0,1,320.576,176.313Z" transform="translate(-93.254 -74.834)" fill="#061757"/>
      <path id="Path_1010" data-name="Path 1010" d="M329.3,180.892a6.654,6.654,0,1,1-2.662,9.024A6.654,6.654,0,0,1,329.3,180.892Z" transform="translate(-85.837 -88.67)" fill="#061757"/>
      <path id="Path_1011" data-name="Path 1011" d="M338.02,185.494a7.015,7.015,0,1,1-2.806,9.515A7.015,7.015,0,0,1,338.02,185.494Z" transform="translate(-78.396 -102.481)" fill="#061757"/>
      <path id="Path_1012" data-name="Path 1012" d="M346.743,190.1a7.375,7.375,0,1,1-2.952,10A7.373,7.373,0,0,1,346.743,190.1Z" transform="translate(-70.956 -116.292)" fill="#061757"/>
      <path id="Path_1013" data-name="Path 1013" d="M355.466,194.7a7.736,7.736,0,1,1-3.1,10.492A7.733,7.733,0,0,1,355.466,194.7Z" transform="translate(-63.515 -130.103)" fill="#061757"/>
      <path id="Path_1014" data-name="Path 1014" d="M364.187,199.321a8.046,8.046,0,1,1-3.22,10.913A8.047,8.047,0,0,1,364.187,199.321Z" transform="translate(-56.051 -143.89)" fill="#061757"/>
      <path id="Path_1015" data-name="Path 1015" d="M372.983,206.348a2.527,2.527,0,1,1-1.011,3.427A2.525,2.525,0,0,1,372.983,206.348Z" transform="translate(-45.871 -154.962)" fill="#061757"/>
      <path id="Path_1016" data-name="Path 1016" d="M202.444,125.622a.567.567,0,1,1-.227.769A.567.567,0,0,1,202.444,125.622Z" transform="translate(-193.668 80.106)" fill="#061757"/>
      <path id="Path_1017" data-name="Path 1017" d="M211.164,130.139a1.135,1.135,0,1,1-.453,1.539A1.134,1.134,0,0,1,211.164,130.139Z" transform="translate(-186.324 66.198)" fill="#061757"/>
      <path id="Path_1018" data-name="Path 1018" d="M219.886,134.7a1.6,1.6,0,1,1-.64,2.17A1.6,1.6,0,0,1,219.886,134.7Z" transform="translate(-178.931 52.338)" fill="#061757"/>
      <path id="Path_1019" data-name="Path 1019" d="M228.607,139.257a2.063,2.063,0,1,1-.826,2.8A2.064,2.064,0,0,1,228.607,139.257Z" transform="translate(-171.538 38.479)" fill="#061757"/>
      <path id="Path_1020" data-name="Path 1020" d="M237.328,143.837a2.476,2.476,0,1,1-.99,3.358A2.477,2.477,0,0,1,237.328,143.837Z" transform="translate(-164.122 24.644)" fill="#061757"/>
      <path id="Path_1021" data-name="Path 1021" d="M246.05,148.4a2.939,2.939,0,1,1-1.177,3.987A2.938,2.938,0,0,1,246.05,148.4Z" transform="translate(-156.729 10.784)" fill="#061757"/>
      <path id="Path_1022" data-name="Path 1022" d="M254.771,152.955a3.4,3.4,0,1,1-1.363,4.618A3.405,3.405,0,0,1,254.771,152.955Z" transform="translate(-149.337 -3.075)" fill="#061757"/>
      <path id="Path_1023" data-name="Path 1023" d="M263.494,157.557a3.766,3.766,0,1,1-1.507,5.108A3.766,3.766,0,0,1,263.494,157.557Z" transform="translate(-141.896 -16.886)" fill="#061757"/>
      <path id="Path_1024" data-name="Path 1024" d="M272.214,162.117a4.23,4.23,0,1,1-1.692,5.737A4.229,4.229,0,0,1,272.214,162.117Z" transform="translate(-134.503 -30.746)" fill="#061757"/>
      <path id="Path_1025" data-name="Path 1025" d="M280.937,166.7a4.642,4.642,0,1,1-1.857,6.3A4.641,4.641,0,0,1,280.937,166.7Z" transform="translate(-127.086 -44.58)" fill="#061757"/>
      <path id="Path_1026" data-name="Path 1026" d="M289.658,171.277a5.054,5.054,0,1,1-2.022,6.855A5.056,5.056,0,0,1,289.658,171.277Z" transform="translate(-119.67 -58.415)" fill="#061757"/>
      <path id="Path_1027" data-name="Path 1027" d="M298.381,175.858a5.467,5.467,0,1,1-2.188,7.415A5.464,5.464,0,0,1,298.381,175.858Z" transform="translate(-112.253 -72.251)" fill="#061757"/>
      <path id="Path_1028" data-name="Path 1028" d="M307.1,180.416a5.931,5.931,0,1,1-2.374,8.045A5.932,5.932,0,0,1,307.1,180.416Z" transform="translate(-104.861 -86.11)" fill="#061757"/>
      <path id="Path_1029" data-name="Path 1029" d="M315.824,185.04a6.24,6.24,0,1,1-2.5,8.465A6.239,6.239,0,0,1,315.824,185.04Z" transform="translate(-97.396 -99.897)" fill="#061757"/>
      <path id="Path_1030" data-name="Path 1030" d="M324.547,189.619a6.653,6.653,0,1,1-2.664,9.026A6.655,6.655,0,0,1,324.547,189.619Z" transform="translate(-89.979 -113.733)" fill="#061757"/>
      <path id="Path_1031" data-name="Path 1031" d="M333.27,194.222a7.014,7.014,0,1,1-2.808,9.513A7.011,7.011,0,0,1,333.27,194.222Z" transform="translate(-82.538 -127.544)" fill="#061757"/>
      <path id="Path_1032" data-name="Path 1032" d="M341.991,198.824a7.375,7.375,0,1,1-2.95,10A7.376,7.376,0,0,1,341.991,198.824Z" transform="translate(-75.098 -141.355)" fill="#061757"/>
      <path id="Path_1033" data-name="Path 1033" d="M350.714,203.425a7.736,7.736,0,1,1-3.1,10.494A7.735,7.735,0,0,1,350.714,203.425Z" transform="translate(-67.657 -155.166)" fill="#061757"/>
      <path id="Path_1034" data-name="Path 1034" d="M359.456,208.644a6.6,6.6,0,1,1-2.643,8.953A6.6,6.6,0,0,1,359.456,208.644Z" transform="translate(-59.52 -168.28)" fill="#061757"/>
      <path id="Path_1035" data-name="Path 1035" d="M368.263,216.095a.052.052,0,0,1,.069.021.054.054,0,0,1-.021.071.052.052,0,0,1-.069-.021A.051.051,0,0,1,368.263,216.095Z" transform="translate(-48.859 -178.872)" fill="#061757"/>
      <path id="Path_1036" data-name="Path 1036" d="M197.7,134.52a.155.155,0,1,1-.062.21A.154.154,0,0,1,197.7,134.52Z" transform="translate(-197.618 55.233)" fill="#061757"/>
      <path id="Path_1037" data-name="Path 1037" d="M206.415,138.887a1.083,1.083,0,1,1-.434,1.469A1.083,1.083,0,0,1,206.415,138.887Z" transform="translate(-190.442 41.158)" fill="#061757"/>
      <path id="Path_1038" data-name="Path 1038" d="M215.135,143.426a1.6,1.6,0,1,1-.64,2.168A1.6,1.6,0,0,1,215.135,143.426Z" transform="translate(-183.073 27.275)" fill="#061757"/>
      <path id="Path_1039" data-name="Path 1039" d="M223.855,147.984a2.063,2.063,0,1,1-.826,2.8A2.064,2.064,0,0,1,223.855,147.984Z" transform="translate(-175.68 13.416)" fill="#061757"/>
      <path id="Path_1040" data-name="Path 1040" d="M232.578,152.564a2.476,2.476,0,1,1-.99,3.358A2.477,2.477,0,0,1,232.578,152.564Z" transform="translate(-168.264 -0.419)" fill="#061757"/>
      <path id="Path_1041" data-name="Path 1041" d="M241.3,157.124a2.939,2.939,0,1,1-1.176,3.987A2.94,2.94,0,0,1,241.3,157.124Z" transform="translate(-160.871 -14.279)" fill="#061757"/>
      <path id="Path_1042" data-name="Path 1042" d="M250.021,161.682a3.4,3.4,0,1,1-1.363,4.618A3.4,3.4,0,0,1,250.021,161.682Z" transform="translate(-153.478 -28.138)" fill="#061757"/>
      <path id="Path_1043" data-name="Path 1043" d="M258.742,166.284a3.766,3.766,0,1,1-1.507,5.108A3.768,3.768,0,0,1,258.742,166.284Z" transform="translate(-146.038 -41.949)" fill="#061757"/>
      <path id="Path_1044" data-name="Path 1044" d="M267.465,170.843a4.229,4.229,0,1,1-1.692,5.737A4.228,4.228,0,0,1,267.465,170.843Z" transform="translate(-138.645 -55.808)" fill="#061757"/>
      <path id="Path_1045" data-name="Path 1045" d="M276.186,175.424a4.642,4.642,0,1,1-1.857,6.3A4.644,4.644,0,0,1,276.186,175.424Z" transform="translate(-131.229 -69.643)" fill="#061757"/>
      <path id="Path_1046" data-name="Path 1046" d="M284.908,180a5.054,5.054,0,1,1-2.023,6.855A5.054,5.054,0,0,1,284.908,180Z" transform="translate(-123.812 -83.478)" fill="#061757"/>
      <path id="Path_1047" data-name="Path 1047" d="M293.629,184.584A5.467,5.467,0,1,1,291.443,192,5.468,5.468,0,0,1,293.629,184.584Z" transform="translate(-116.395 -97.313)" fill="#061757"/>
      <path id="Path_1048" data-name="Path 1048" d="M302.351,189.143a5.931,5.931,0,1,1-2.374,8.045A5.934,5.934,0,0,1,302.351,189.143Z" transform="translate(-109.002 -111.173)" fill="#061757"/>
      <path id="Path_1049" data-name="Path 1049" d="M311.075,193.767a6.24,6.24,0,1,1-2.5,8.465A6.239,6.239,0,0,1,311.075,193.767Z" transform="translate(-101.537 -124.96)" fill="#061757"/>
      <path id="Path_1050" data-name="Path 1050" d="M319.8,198.347a6.653,6.653,0,1,1-2.662,9.024A6.652,6.652,0,0,1,319.8,198.347Z" transform="translate(-94.121 -138.795)" fill="#061757"/>
      <path id="Path_1051" data-name="Path 1051" d="M328.519,202.949a7.014,7.014,0,1,1-2.808,9.513A7.015,7.015,0,0,1,328.519,202.949Z" transform="translate(-86.681 -152.606)" fill="#061757"/>
      <path id="Path_1052" data-name="Path 1052" d="M337.241,207.551a7.375,7.375,0,1,1-2.952,10A7.373,7.373,0,0,1,337.241,207.551Z" transform="translate(-79.239 -166.418)" fill="#061757"/>
      <path id="Path_1053" data-name="Path 1053" d="M345.965,212.194a7.633,7.633,0,1,1-3.055,10.353A7.633,7.633,0,0,1,345.965,212.194Z" transform="translate(-71.751 -180.181)" fill="#061757"/>
      <path id="Path_1054" data-name="Path 1054" d="M354.763,219.327a1.857,1.857,0,1,1-.743,2.518A1.858,1.858,0,0,1,354.763,219.327Z" transform="translate(-61.451 -191.133)" fill="#061757"/>
      <path id="Path_1055" data-name="Path 1055" d="M201.67,147.847a.516.516,0,1,1-.206.7A.517.517,0,0,1,201.67,147.847Z" transform="translate(-194.319 16.36)" fill="#061757"/>
      <path id="Path_1056" data-name="Path 1056" d="M210.383,152.152a1.6,1.6,0,1,1-.638,2.168A1.6,1.6,0,0,1,210.383,152.152Z" transform="translate(-187.215 2.213)" fill="#061757"/>
      <path id="Path_1057" data-name="Path 1057" d="M219.106,156.711a2.063,2.063,0,1,1-.826,2.8A2.064,2.064,0,0,1,219.106,156.711Z" transform="translate(-179.822 -11.647)" fill="#061757"/>
      <path id="Path_1058" data-name="Path 1058" d="M227.827,161.291a2.476,2.476,0,1,1-.99,3.358A2.477,2.477,0,0,1,227.827,161.291Z" transform="translate(-172.406 -25.482)" fill="#061757"/>
      <path id="Path_1059" data-name="Path 1059" d="M236.549,165.851a2.94,2.94,0,1,1-1.177,3.987A2.938,2.938,0,0,1,236.549,165.851Z" transform="translate(-165.013 -39.341)" fill="#061757"/>
      <path id="Path_1060" data-name="Path 1060" d="M245.27,170.41a3.4,3.4,0,1,1-1.363,4.616A3.4,3.4,0,0,1,245.27,170.41Z" transform="translate(-157.62 -53.2)" fill="#061757"/>
      <path id="Path_1061" data-name="Path 1061" d="M253.993,175.012a3.765,3.765,0,1,1-1.507,5.107A3.762,3.762,0,0,1,253.993,175.012Z" transform="translate(-150.18 -67.011)" fill="#061757"/>
      <path id="Path_1062" data-name="Path 1062" d="M262.713,179.57a4.23,4.23,0,1,1-1.692,5.737A4.233,4.233,0,0,1,262.713,179.57Z" transform="translate(-142.787 -80.87)" fill="#061757"/>
      <path id="Path_1063" data-name="Path 1063" d="M271.436,184.151a4.642,4.642,0,1,1-1.859,6.3A4.641,4.641,0,0,1,271.436,184.151Z" transform="translate(-135.37 -94.706)" fill="#061757"/>
      <path id="Path_1064" data-name="Path 1064" d="M280.157,188.731a5.054,5.054,0,1,1-2.022,6.855A5.055,5.055,0,0,1,280.157,188.731Z" transform="translate(-127.953 -108.541)" fill="#061757"/>
      <path id="Path_1065" data-name="Path 1065" d="M288.88,193.311a5.467,5.467,0,1,1-2.188,7.415A5.466,5.466,0,0,1,288.88,193.311Z" transform="translate(-120.537 -122.376)" fill="#061757"/>
      <path id="Path_1066" data-name="Path 1066" d="M297.6,197.87a5.931,5.931,0,1,1-2.373,8.045A5.934,5.934,0,0,1,297.6,197.87Z" transform="translate(-113.144 -136.236)" fill="#061757"/>
      <path id="Path_1067" data-name="Path 1067" d="M306.323,202.494a6.24,6.24,0,1,1-2.5,8.465A6.239,6.239,0,0,1,306.323,202.494Z" transform="translate(-105.68 -150.023)" fill="#061757"/>
      <path id="Path_1068" data-name="Path 1068" d="M315.046,207.074a6.653,6.653,0,1,1-2.664,9.024A6.652,6.652,0,0,1,315.046,207.074Z" transform="translate(-98.263 -163.858)" fill="#061757"/>
      <circle id="Ellipse_26" data-name="Ellipse 26" cx="7.014" cy="7.014" r="7.014" transform="translate(231.557 31.454) rotate(16.438)" fill="#061757"/>
      <path id="Path_1069" data-name="Path 1069" d="M332.49,216.278a7.375,7.375,0,1,1-2.952,10A7.376,7.376,0,0,1,332.49,216.278Z" transform="translate(-83.382 -191.481)" fill="#061757"/>
      <path id="Path_1070" data-name="Path 1070" d="M341.268,222.686a3.352,3.352,0,1,1-1.342,4.547A3.353,3.353,0,0,1,341.268,222.686Z" transform="translate(-73.898 -203.249)" fill="#061757"/>
      <path id="Path_1071" data-name="Path 1071" d="M205.645,161.24a.722.722,0,1,1-.29.979A.72.72,0,0,1,205.645,161.24Z" transform="translate(-190.948 -22.442)" fill="#061757"/>
      <path id="Path_1072" data-name="Path 1072" d="M214.355,165.46a2.011,2.011,0,1,1-.8,2.727A2.01,2.01,0,0,1,214.355,165.46Z" transform="translate(-183.94 -36.685)" fill="#061757"/>
      <path id="Path_1073" data-name="Path 1073" d="M223.077,170.018a2.475,2.475,0,1,1-.99,3.358A2.478,2.478,0,0,1,223.077,170.018Z" transform="translate(-176.548 -50.545)" fill="#061757"/>
      <path id="Path_1074" data-name="Path 1074" d="M231.8,174.577a2.94,2.94,0,1,1-1.176,3.987A2.939,2.939,0,0,1,231.8,174.577Z" transform="translate(-169.155 -64.404)" fill="#061757"/>
      <path id="Path_1075" data-name="Path 1075" d="M240.52,179.137a3.4,3.4,0,1,1-1.363,4.616A3.4,3.4,0,0,1,240.52,179.137Z" transform="translate(-161.762 -78.263)" fill="#061757"/>
      <path id="Path_1076" data-name="Path 1076" d="M249.241,183.738a3.765,3.765,0,1,1-1.507,5.106A3.767,3.767,0,0,1,249.241,183.738Z" transform="translate(-154.322 -92.073)" fill="#061757"/>
      <path id="Path_1077" data-name="Path 1077" d="M257.963,188.3a4.229,4.229,0,1,1-1.692,5.737A4.228,4.228,0,0,1,257.963,188.3Z" transform="translate(-146.929 -105.933)" fill="#061757"/>
      <path id="Path_1078" data-name="Path 1078" d="M266.685,192.877a4.642,4.642,0,1,1-1.857,6.3A4.644,4.644,0,0,1,266.685,192.877Z" transform="translate(-139.512 -119.769)" fill="#061757"/>
      <path id="Path_1079" data-name="Path 1079" d="M275.408,197.458a5.054,5.054,0,1,1-2.024,6.855A5.053,5.053,0,0,1,275.408,197.458Z" transform="translate(-132.096 -133.604)" fill="#061757"/>
      <path id="Path_1080" data-name="Path 1080" d="M284.128,202.038a5.467,5.467,0,1,1-2.186,7.415A5.468,5.468,0,0,1,284.128,202.038Z" transform="translate(-124.679 -147.439)" fill="#061757"/>
      <path id="Path_1081" data-name="Path 1081" d="M292.85,206.6a5.931,5.931,0,1,1-2.373,8.043A5.931,5.931,0,0,1,292.85,206.6Z" transform="translate(-117.286 -161.298)" fill="#061757"/>
      <path id="Path_1082" data-name="Path 1082" d="M301.574,211.221a6.24,6.24,0,1,1-2.5,8.465A6.24,6.24,0,0,1,301.574,211.221Z" transform="translate(-109.822 -175.086)" fill="#061757"/>
      <path id="Path_1083" data-name="Path 1083" d="M310.295,215.8a6.653,6.653,0,1,1-2.662,9.024A6.652,6.652,0,0,1,310.295,215.8Z" transform="translate(-102.405 -188.921)" fill="#061757"/>
      <path id="Path_1084" data-name="Path 1084" d="M319.018,220.445a6.912,6.912,0,1,1-2.765,9.374A6.911,6.911,0,0,1,319.018,220.445Z" transform="translate(-94.916 -202.684)" fill="#061757"/>
      <path id="Path_1085" data-name="Path 1085" d="M327.792,226.727a3.2,3.2,0,1,1-1.28,4.337A3.2,3.2,0,0,1,327.792,226.727Z" transform="translate(-85.577 -214.596)" fill="#061757"/>
      <path id="Path_1086" data-name="Path 1086" d="M209.624,174.825a.464.464,0,1,1-.185.629A.463.463,0,0,1,209.624,174.825Z" transform="translate(-187.361 -61.027)" fill="#061757"/>
      <path id="Path_1087" data-name="Path 1087" d="M218.332,178.937a2.012,2.012,0,1,1-.8,2.729A2.01,2.01,0,0,1,218.332,178.937Z" transform="translate(-180.473 -75.391)" fill="#061757"/>
      <path id="Path_1088" data-name="Path 1088" d="M227.048,183.3a2.94,2.94,0,1,1-1.177,3.987A2.939,2.939,0,0,1,227.048,183.3Z" transform="translate(-173.297 -89.467)" fill="#061757"/>
      <path id="Path_1089" data-name="Path 1089" d="M235.769,187.864a3.4,3.4,0,1,1-1.363,4.616A3.4,3.4,0,0,1,235.769,187.864Z" transform="translate(-165.904 -103.326)" fill="#061757"/>
      <path id="Path_1090" data-name="Path 1090" d="M244.492,192.465a3.765,3.765,0,1,1-1.507,5.107A3.765,3.765,0,0,1,244.492,192.465Z" transform="translate(-158.463 -117.136)" fill="#061757"/>
      <path id="Path_1091" data-name="Path 1091" d="M253.213,197.023a4.23,4.23,0,1,1-1.692,5.737A4.233,4.233,0,0,1,253.213,197.023Z" transform="translate(-151.071 -130.996)" fill="#061757"/>
      <path id="Path_1092" data-name="Path 1092" d="M261.935,201.6a4.642,4.642,0,1,1-1.859,6.3A4.64,4.64,0,0,1,261.935,201.6Z" transform="translate(-143.654 -144.832)" fill="#061757"/>
      <path id="Path_1093" data-name="Path 1093" d="M270.656,206.185a5.054,5.054,0,1,1-2.022,6.857A5.055,5.055,0,0,1,270.656,206.185Z" transform="translate(-136.237 -158.667)" fill="#061757"/>
      <path id="Path_1094" data-name="Path 1094" d="M279.379,210.765a5.467,5.467,0,1,1-2.188,7.415A5.466,5.466,0,0,1,279.379,210.765Z" transform="translate(-128.821 -172.502)" fill="#061757"/>
      <path id="Path_1095" data-name="Path 1095" d="M288.1,215.325a5.931,5.931,0,1,1-2.374,8.044A5.931,5.931,0,0,1,288.1,215.325Z" transform="translate(-121.428 -186.361)" fill="#061757"/>
      <path id="Path_1096" data-name="Path 1096" d="M296.822,219.947a6.24,6.24,0,1,1-2.5,8.465A6.241,6.241,0,0,1,296.822,219.947Z" transform="translate(-113.963 -200.148)" fill="#061757"/>
      <path id="Path_1097" data-name="Path 1097" d="M305.56,225.017a5.467,5.467,0,1,1-2.188,7.416A5.466,5.466,0,0,1,305.56,225.017Z" transform="translate(-105.994 -213.431)" fill="#061757"/>
      <path id="Path_1098" data-name="Path 1098" d="M314.334,231.363a1.6,1.6,0,1,1-.64,2.168A1.6,1.6,0,0,1,314.334,231.363Z" transform="translate(-96.583 -225.272)" fill="#061757"/>
      <path id="Path_1099" data-name="Path 1099" d="M222.322,192.882a.877.877,0,1,1-.35,1.189A.875.875,0,0,1,222.322,192.882Z" transform="translate(-176.477 -113.569)" fill="#061757"/>
      <path id="Path_1100" data-name="Path 1100" d="M231.034,197.1a2.166,2.166,0,1,1-.867,2.939A2.165,2.165,0,0,1,231.034,197.1Z" transform="translate(-169.469 -127.812)" fill="#061757"/>
      <path id="Path_1101" data-name="Path 1101" d="M239.747,201.384a3.3,3.3,0,1,1-1.322,4.476A3.3,3.3,0,0,1,239.747,201.384Z" transform="translate(-162.389 -141.983)" fill="#061757"/>
      <path id="Path_1102" data-name="Path 1102" d="M248.463,205.75a4.229,4.229,0,1,1-1.694,5.737A4.229,4.229,0,0,1,248.463,205.75Z" transform="translate(-155.213 -156.059)" fill="#061757"/>
      <path id="Path_1103" data-name="Path 1103" d="M257.184,210.33a4.642,4.642,0,1,1-1.857,6.3A4.644,4.644,0,0,1,257.184,210.33Z" transform="translate(-147.796 -169.894)" fill="#061757"/>
      <ellipse id="Ellipse_27" data-name="Ellipse 27" cx="5.054" cy="5.054" rx="5.054" ry="5.054" transform="translate(126.199 28.69) rotate(30.881)" fill="#061757"/>
      <path id="Path_1104" data-name="Path 1104" d="M274.635,219.747a4.849,4.849,0,1,1-1.939,6.576A4.848,4.848,0,0,1,274.635,219.747Z" transform="translate(-132.674 -197.277)" fill="#061757"/>
      <path id="Path_1105" data-name="Path 1105" d="M283.376,224.945a3.765,3.765,0,1,1-1.507,5.107A3.764,3.764,0,0,1,283.376,224.945Z" transform="translate(-124.561 -210.415)" fill="#061757"/>
      <path id="Path_1106" data-name="Path 1106" d="M292.125,230.462a1.908,1.908,0,1,1-.764,2.587A1.906,1.906,0,0,1,292.125,230.462Z" transform="translate(-116.087 -223.193)" fill="#061757"/>
      <path id="Path_1107" data-name="Path 1107" d="M300.874,235.977a.054.054,0,0,1,.071.021.052.052,0,1,1-.092.051A.054.054,0,0,1,300.874,235.977Z" transform="translate(-107.613 -235.971)" fill="#061757"/>
    </g>
  </g>
</svg>
