<svg id="_9285_-_Investment" xmlns="http://www.w3.org/2000/svg" width="83.268" height="76.238" viewBox="0 0 83.268 76.238">
  <g id="Group_169" data-name="Group 169" transform="translate(0 38.438)">
    <g id="Group_168" data-name="Group 168" transform="translate(11.238 0)">
      <path id="Path_1716" d="M487.779,1063.358h-.006l-23.162,0a1.3,1.3,0,0,1,0-2.6h0l23.162.005h.006a27.43,27.43,0,0,0,14.482-4.131l28.9-17.958a3.34,3.34,0,0,0,.118-5.6,3.343,3.343,0,0,0-3.643-.073q-5.186,3.23-14.126,8.868-4.394,2.766-9.618,6.051a1.3,1.3,0,1,1-1.385-2.2q5.214-3.278,9.617-6.05,8.946-5.63,14.137-8.875a5.942,5.942,0,1,1,6.274,10.093l-28.9,17.957A30.028,30.028,0,0,1,487.779,1063.358Z" transform="translate(-463.31 -1029.887)" fill="#fff" data-darkreader-inline-fill="" style="--darkreader-inline-fill: #181a1b;"/>
      <path id="Path_1717" d="M498.417,1223.5H484.6a1.3,1.3,0,1,1,0-2.6h13.814a3.556,3.556,0,0,0,3.559-3.393,3.5,3.5,0,0,0-.98-2.6,3.676,3.676,0,0,0-2.648-1.133H481.255c-2.451-.021-9.91-.088-14.417,4.538a12.826,12.826,0,0,0-1.178,1.4,1.3,1.3,0,1,1-2.1-1.532,15.41,15.41,0,0,1,1.417-1.679,17.35,17.35,0,0,1,8.9-4.663,32.687,32.687,0,0,1,7.4-.661h17.075a6.291,6.291,0,0,1,4.531,1.939,6.078,6.078,0,0,1,1.7,4.518A6.154,6.154,0,0,1,498.417,1223.5Z" transform="translate(-463.308 -1201.337)" fill="#fff" data-darkreader-inline-fill="" style="--darkreader-inline-fill: #181a1b;"/>
    </g>
    <path id="Path_1718" d="M266.371,1239.143h-6.9a3.473,3.473,0,0,1-3.469-3.469V1214.64a3.473,3.473,0,0,1,3.469-3.469h6.9a3.473,3.473,0,0,1,3.469,3.469v21.034A3.473,3.473,0,0,1,266.371,1239.143Zm-6.9-25.37a.868.868,0,0,0-.867.867v21.034a.868.868,0,0,0,.867.867h6.9a.868.868,0,0,0,.867-.867V1214.64a.868.868,0,0,0-.867-.867Z" transform="translate(-256 -1201.343)" fill="#fff" data-darkreader-inline-fill="" style="--darkreader-inline-fill: #e8e6e3;"/>
  </g>
  <g id="Group_172" data-name="Group 172" transform="translate(28.652)">
    <g id="Group_171" data-name="Group 171" transform="translate(8.159 5.109)">
      <path id="Path_1719" d="M944.138,452.832h0a3.814,3.814,0,0,0-1.614-1.286,15.116,15.116,0,0,0-2.553-.739,5.3,5.3,0,0,1-2.041-.7.85.85,0,0,1-.294-.677,1.053,1.053,0,0,1,.456-.857,2.8,2.8,0,0,1,1.691-.4,2.632,2.632,0,0,1,1.68.445,1.656,1.656,0,0,1,.527.832,1.129,1.129,0,0,0,1.171.815l.018,0a1.139,1.139,0,0,0,.851-.485,1.127,1.127,0,0,0,.161-.956,3.706,3.706,0,0,0-.47-1.027,3.586,3.586,0,0,0-1.646-1.334,6.039,6.039,0,0,0-2.353-.433,5.763,5.763,0,0,0-2.21.412,3.4,3.4,0,0,0-1.593,1.275,3.265,3.265,0,0,0-.548,1.81,2.972,2.972,0,0,0,.457,1.614,3.441,3.441,0,0,0,1.35,1.187,10.528,10.528,0,0,0,2.255.735,18.327,18.327,0,0,1,1.936.529,1.9,1.9,0,0,1,.823.524,1.05,1.05,0,0,1,.216.66,1.2,1.2,0,0,1-.237.71,1.675,1.675,0,0,1-.775.544,3.71,3.71,0,0,1-1.341.223,3.854,3.854,0,0,1-1.546-.3,2.119,2.119,0,0,1-.943-.718,2.246,2.246,0,0,1-.292-.66,1.143,1.143,0,0,0-2.216.563,4.11,4.11,0,0,0,.566,1.316,3.983,3.983,0,0,0,1.792,1.484,6.863,6.863,0,0,0,2.707.476,5.553,5.553,0,0,0,2.327-.476,3.787,3.787,0,0,0,1.644-1.38,3.467,3.467,0,0,0,.578-1.908A3.2,3.2,0,0,0,944.138,452.832Z" transform="translate(-935.029 -444.353)" fill="#fff" data-darkreader-inline-fill="" style="--darkreader-inline-fill: #e8e6e3;"/>
      <g id="Group_170" data-name="Group 170" transform="translate(3.522)">
        <path id="Path_1720" d="M1001.3,647.809a1.3,1.3,0,0,1-1.3-1.3V645.8a1.3,1.3,0,1,1,2.6,0v.706A1.3,1.3,0,0,1,1001.3,647.809Z" transform="translate(-1000 -632.064)" fill="#fff" data-darkreader-inline-fill="" style="--darkreader-inline-fill: #e8e6e3;"/>
        <path id="Path_1721" d="M1001.3,418.4a1.3,1.3,0,0,1-1.3-1.3v-.7a1.3,1.3,0,1,1,2.6,0v.7A1.3,1.3,0,0,1,1001.3,418.4Z" transform="translate(-1000 -415.09)" fill="#fff" data-darkreader-inline-fill="" style="--darkreader-inline-fill: #e8e6e3;"/>
      </g>
    </g>
    <path id="Path_1722" d="M797.512,346.8a12.982,12.982,0,1,1,9.179-3.8A12.9,12.9,0,0,1,797.512,346.8Zm0-23.361a10.38,10.38,0,1,0,10.38,10.38A10.391,10.391,0,0,0,797.512,323.441Z" transform="translate(-784.53 -320.839)" fill="#fff" data-darkreader-inline-fill="" style="--darkreader-inline-fill: #e8e6e3;"/>
  </g>
  <g id="Group_175" data-name="Group 175" transform="translate(16.669 23.362)">
    <path id="Path_1723" d="M1001.3,779.288a1.3,1.3,0,0,1-1.3-1.3V753.081a1.3,1.3,0,1,1,2.6,0v24.906A1.3,1.3,0,0,1,1001.3,779.288Z" transform="translate(-976.337 -751.78)" fill="#fff" data-darkreader-inline-fill="" style="--darkreader-inline-fill: #e8e6e3;"/>
    <g id="Group_173" data-name="Group 173" transform="translate(23.663 0.444)">
      <path id="Path_1724" d="M1001.3,906.886a1.3,1.3,0,0,1-1.3-1.3c0-3.451,1.552-6.689,4.613-9.625a35.923,35.923,0,0,1,8.86-5.9,1.3,1.3,0,1,1,1.165,2.327,33.43,33.43,0,0,0-8.224,5.45c-2.565,2.459-3.812,4.994-3.812,7.746A1.3,1.3,0,0,1,1001.3,906.886Z" transform="translate(-1000 -882.879)" fill="#fff" data-darkreader-inline-fill="" style="--darkreader-inline-fill: #e8e6e3;"/>
      <path id="Path_1725" d="M1091.588,776.714a17.568,17.568,0,0,1-6.7-1.865,1.3,1.3,0,0,1-.782-1.171,16.546,16.546,0,0,1,1.21-6.924,10.6,10.6,0,0,1,3.519-4.414c4.561-3.3,11.308-2.685,16.1-1.013a1.3,1.3,0,0,1,.3,2.3,13.089,13.089,0,0,0-4.334,4.972c-.082.155-.147.277-.209.382l-.262.458c-.108.19-.211.37-.234.408-2.338,4-4.375,5.986-6.808,6.632A7,7,0,0,1,1091.588,776.714Zm-4.876-3.915c5.291,2.225,7.491,2.166,11.247-4.263l.217-.38c.177-.311.258-.452.286-.5s.084-.154.144-.266a16.114,16.114,0,0,1,3.149-4.27c-3.743-.853-8.318-.895-11.395,1.33C1088.03,766.134,1086.805,768.94,1086.712,772.8Z" transform="translate(-1079.545 -759.968)" fill="#fff" data-darkreader-inline-fill="" style="--darkreader-inline-fill: #e8e6e3;"/>
    </g>
    <g id="Group_174" data-name="Group 174" transform="translate(0 0.444)">
      <path id="Path_1726" d="M778.77,906.886a1.3,1.3,0,0,1-1.3-1.3c0-2.753-1.247-5.287-3.812-7.746a33.435,33.435,0,0,0-8.224-5.45,1.3,1.3,0,0,1,1.165-2.327,35.926,35.926,0,0,1,8.86,5.9c3.061,2.935,4.613,6.173,4.613,9.625A1.3,1.3,0,0,1,778.77,906.886Z" transform="translate(-753.806 -882.878)" fill="#fff" data-darkreader-inline-fill="" style="--darkreader-inline-fill: #e8e6e3;"/>
      <path id="Path_1727" d="M577.713,776.713a6.991,6.991,0,0,1-1.806-.229c-2.434-.646-4.471-2.63-6.811-6.636l-.23-.4c-.1-.167-.239-.419-.264-.461-.062-.1-.127-.227-.209-.382a13.1,13.1,0,0,0-4.333-4.972,1.3,1.3,0,0,1,.3-2.3c4.794-1.673,11.541-2.285,16.1,1.012a10.6,10.6,0,0,1,3.519,4.414,16.545,16.545,0,0,1,1.21,6.924,1.3,1.3,0,0,1-.782,1.171A17.567,17.567,0,0,1,577.713,776.713Zm-10.167-13.594a16.115,16.115,0,0,1,3.149,4.27c.06.113.116.219.144.268s.113.2.287.5l.214.374c3.758,6.432,5.958,6.492,11.249,4.267-.093-3.859-1.319-6.665-3.649-8.35C575.863,762.224,571.288,762.266,567.545,763.119Zm16.347,10.536h0Z" transform="translate(-563.49 -759.967)" fill="#fff" data-darkreader-inline-fill="" style="--darkreader-inline-fill: #e8e6e3;"/>
    </g>
  </g>
</svg>