<svg id="_9247_-_Increase_and_Decrease_in_Rate" xmlns="http://www.w3.org/2000/svg" width="91.545" height="67.564" viewBox="0 0 91.545 67.564">
  <g id="Group_106" data-name="Group 106" transform="translate(0 26.725)">
    <path id="Path_1568" d="M267.7,1151.672H257.43a1.43,1.43,0,0,1-1.43-1.43V1125.27a1.43,1.43,0,0,1,1.43-1.43H267.7a1.43,1.43,0,0,1,1.43,1.43v24.971A1.431,1.431,0,0,1,267.7,1151.672Zm-8.837-2.861h7.406V1126.7h-7.406Z" transform="translate(-256 -1110.833)" fill="#fff"/>
    <path id="Path_1569" d="M596.628,1272.128H586.36a1.43,1.43,0,0,1-1.43-1.43V1253.36a1.43,1.43,0,0,1,1.43-1.43h10.267a1.43,1.43,0,0,1,1.43,1.43V1270.7A1.431,1.431,0,0,1,596.628,1272.128Zm-8.837-2.861H595.2v-14.476h-7.406Z" transform="translate(-565.326 -1231.289)" fill="#fff"/>
    <path id="Path_1570" d="M925.557,1018.426H915.29a1.43,1.43,0,0,1-1.43-1.43V983.58a1.43,1.43,0,0,1,1.43-1.43h10.267a1.43,1.43,0,0,1,1.43,1.43V1017A1.43,1.43,0,0,1,925.557,1018.426Zm-8.837-2.861h7.406V985.011h-7.406Z" transform="translate(-874.652 -977.588)" fill="#fff"/>
    <path id="Path_1571" d="M1254.5,1242.289H1244.23a1.43,1.43,0,0,1-1.43-1.43V1221.63a1.43,1.43,0,0,1,1.43-1.43H1254.5a1.43,1.43,0,0,1,1.43,1.43v19.228A1.431,1.431,0,0,1,1254.5,1242.289Zm-8.837-2.861h7.406v-16.367h-7.406Z" transform="translate(-1183.988 -1201.45)" fill="#fff"/>
    <path id="Path_1572" d="M1583.427,946.438H1573.16a1.43,1.43,0,0,1-1.43-1.43V907.03a1.43,1.43,0,0,1,1.43-1.43h10.267a1.43,1.43,0,0,1,1.43,1.43v37.978A1.43,1.43,0,0,1,1583.427,946.438Zm-8.837-2.861H1582V908.461h-7.406Z" transform="translate(-1493.314 -905.6)" fill="#fff"/>
  </g>
  <g id="Group_108" data-name="Group 108">
    <path id="Path_1573" d="M399.883,811.02a1.425,1.425,0,0,1-.57-.119l-12.759-5.553a1.43,1.43,0,1,1,1.142-2.623l12.759,5.553a1.431,1.431,0,0,1-.572,2.742Z" transform="translate(-377.964 -782.018)" fill="#fff"/>
    <g id="Group_107" data-name="Group 107">
      <path id="Path_1574" d="M713.131,674.4a1.43,1.43,0,0,1-.967-2.485l14.21-13.026a1.43,1.43,0,0,1,1.933,2.109L714.1,674.021A1.425,1.425,0,0,1,713.131,674.4Z" transform="translate(-684.541 -646.511)" fill="#fff"/>
      <path id="Path_1575" d="M1385.824,592.74a1.43,1.43,0,0,1-1.045-2.407l14.646-15.658a1.43,1.43,0,1,1,2.089,1.954l-14.646,15.658A1.428,1.428,0,0,1,1385.824,592.74Z" transform="translate(-1317.143 -567.245)" fill="#fff"/>
      <path id="Path_1576" d="M1067.9,669.431a1.425,1.425,0,0,1-.9-.318l-13.887-11.231a1.43,1.43,0,0,1,1.8-2.224l13.887,11.231a1.43,1.43,0,0,1-.9,2.543Z" transform="translate(-1005.108 -643.529)" fill="#fff"/>
      <path id="Path_1577" d="M261.462,718.874a5.462,5.462,0,1,1,5.462-5.462A5.468,5.468,0,0,1,261.462,718.874Zm0-8.064a2.6,2.6,0,1,0,2.6,2.6A2.6,2.6,0,0,0,261.462,710.811Z" transform="translate(-256 -693.004)" fill="#fff"/>
      <path id="Path_1578" d="M599.642,866.064A5.462,5.462,0,1,1,605.1,860.6,5.468,5.468,0,0,1,599.642,866.064Zm0-8.064a2.6,2.6,0,1,0,2.6,2.6A2.6,2.6,0,0,0,599.642,858Z" transform="translate(-574.025 -831.422)" fill="#fff"/>
      <path id="Path_1579" d="M937.812,556.084a5.462,5.462,0,1,1,5.462-5.462A5.468,5.468,0,0,1,937.812,556.084Zm0-8.064a2.6,2.6,0,1,0,2.6,2.6A2.6,2.6,0,0,0,937.812,548.021Z" transform="translate(-892.04 -539.916)" fill="#fff"/>
      <path id="Path_1580" d="M1275.993,829.6a5.462,5.462,0,1,1,5.462-5.462A5.468,5.468,0,0,1,1275.993,829.6Zm0-8.064a2.6,2.6,0,1,0,2.6,2.6A2.6,2.6,0,0,0,1275.993,821.541Z" transform="translate(-1210.066 -797.135)" fill="#fff"/>
      <path id="Path_1581" d="M1614.152,468.1a5.462,5.462,0,1,1,5.462-5.462A5.468,5.468,0,0,1,1614.152,468.1Zm0-8.064a2.6,2.6,0,1,0,2.6,2.6A2.6,2.6,0,0,0,1614.152,460.041Z" transform="translate(-1528.071 -457.18)" fill="#fff"/>
    </g>
  </g>
</svg>