<svg id="_9246_-_Budget_Calculations" xmlns="http://www.w3.org/2000/svg" width="81.84" height="78.232" viewBox="0 0 81.84 78.232">
  <g id="Group_104" data-name="Group 104" transform="translate(3.055)">
    <g id="Group_98" data-name="Group 98" transform="translate(0 5.305)">
      <path id="Path_1536" d="M314.619,1467.758a1.278,1.278,0,0,1-1.279-1.278h0a1.279,1.279,0,1,1,1.279,1.279Z" transform="translate(-313.34 -1407.881)" fill="#fff"/>
      <path id="Path_1537" d="M314.619,1222.847a1.278,1.278,0,0,1-1.279-1.278h0a1.279,1.279,0,1,1,1.279,1.279Z" transform="translate(-313.34 -1176.019)" fill="#fff"/>
      <path id="Path_1538" d="M314.619,429.734a1.279,1.279,0,0,1-1.279-1.279V393.189a3.763,3.763,0,0,1,3.759-3.759h44.785a3.762,3.762,0,0,1,3.758,3.759v18.49a1.279,1.279,0,0,1-2.558,0v-18.49a1.2,1.2,0,0,0-1.2-1.2H317.1a1.2,1.2,0,0,0-1.2,1.2v35.267A1.279,1.279,0,0,1,314.619,429.734Z" transform="translate(-313.34 -389.43)" fill="#fff"/>
      <path id="Path_1539" d="M314.619,1345.3a1.278,1.278,0,0,1-1.279-1.278h0a1.279,1.279,0,1,1,1.279,1.279Z" transform="translate(-313.34 -1291.946)" fill="#fff"/>
      <path id="Path_1540" d="M813.646,1546.157h-6.717a1.279,1.279,0,1,1,0-2.557h6.717a1.279,1.279,0,1,1,0,2.557Z" transform="translate(-779.419 -1482.103)" fill="#fff"/>
      <path id="Path_1541" d="M969.252,834.948H936.186a4.482,4.482,0,0,1-4.476-4.476V787.466a4.481,4.481,0,0,1,4.476-4.476h33.066a4.481,4.481,0,0,1,4.476,4.476v43.006A4.481,4.481,0,0,1,969.252,834.948Zm-33.066-49.4a1.92,1.92,0,0,0-1.918,1.918v43.005a1.921,1.921,0,0,0,1.918,1.919h33.066a1.92,1.92,0,0,0,1.918-1.918V787.466a1.92,1.92,0,0,0-1.918-1.918Z" transform="translate(-898.762 -762.02)" fill="#fff"/>
      <g id="Group_97" data-name="Group 97" transform="translate(6.8 7.712)">
        <g id="Group_93" data-name="Group 93" transform="translate(19.52 0.325)">
          <path id="Path_1542" d="M825.223,542.828H808.6a1.279,1.279,0,1,1,0-2.558h16.625a1.279,1.279,0,1,1,0,2.558Z" transform="translate(-807.32 -540.27)" fill="#fff"/>
          <path id="Path_1543" d="M825.223,688.068H808.6a1.279,1.279,0,1,1,0-2.558h16.625a1.279,1.279,0,1,1,0,2.558Z" transform="translate(-807.32 -677.771)" fill="#fff"/>
          <path id="Path_1544" d="M815.272,833.308h-6.663a1.279,1.279,0,1,1,0-2.558h6.663a1.279,1.279,0,1,1,0,2.558Z" transform="translate(-807.33 -815.273)" fill="#fff"/>
        </g>
        <g id="Group_94" data-name="Group 94" transform="translate(0 23.541)">
          <path id="Path_1545" d="M462.387,978.548H442.249a1.279,1.279,0,1,1,0-2.558h20.138a1.279,1.279,0,1,1,0,2.558Z" transform="translate(-440.97 -975.99)" fill="#fff"/>
        </g>
        <g id="Group_96" data-name="Group 96" transform="translate(3.748)">
          <path id="Path_1546" d="M522.076,579.433l-.009-.013a4.47,4.47,0,0,0-1.878-1.485,18.414,18.414,0,0,0-3.087-.892,6.677,6.677,0,0,1-2.607-.912,1.273,1.273,0,0,1-.436-1,1.524,1.524,0,0,1,.645-1.23,3.594,3.594,0,0,1,2.219-.54,3.444,3.444,0,0,1,2.206.6,2.256,2.256,0,0,1,.721,1.133,1.156,1.156,0,0,0,1.11.84c.03,0,.06,0,.09,0l.023,0a1.167,1.167,0,0,0,.872-.5,1.153,1.153,0,0,0,.166-.978,4.324,4.324,0,0,0-.548-1.2,4.171,4.171,0,0,0-1.918-1.551,7.187,7.187,0,0,0-2.8-.513,6.84,6.84,0,0,0-2.624.489,3.941,3.941,0,0,0-1.85,1.477,3.781,3.781,0,0,0-.635,2.1,3.423,3.423,0,0,0,.525,1.858,4,4,0,0,0,1.571,1.376,12.748,12.748,0,0,0,2.713.881,24.219,24.219,0,0,1,2.406.658,2.518,2.518,0,0,1,1.108.716,1.513,1.513,0,0,1,.314.951,1.692,1.692,0,0,1-.334,1.005,2.275,2.275,0,0,1-1.054.746,4.781,4.781,0,0,1-1.728.289,4.961,4.961,0,0,1-1.989-.383,2.821,2.821,0,0,1-1.255-.963,2.972,2.972,0,0,1-.388-.877,1.181,1.181,0,0,0-1.134-.87c-.034,0-.069,0-.1,0a1.175,1.175,0,0,0-1.039,1.443,4.8,4.8,0,0,0,.663,1.541,4.665,4.665,0,0,0,2.1,1.737,8.206,8.206,0,0,0,3.231.565,6.586,6.586,0,0,0,2.759-.563,4.421,4.421,0,0,0,1.92-1.61,4.026,4.026,0,0,0,.672-2.217A3.706,3.706,0,0,0,522.076,579.433Z" transform="translate(-511.321 -569.218)" fill="#fff"/>
          <g id="Group_95" data-name="Group 95" transform="translate(4.408)">
            <path id="Path_1547" d="M595.329,824a1.279,1.279,0,0,1-1.279-1.279v-.867a1.279,1.279,0,1,1,2.558,0v.867A1.279,1.279,0,0,1,595.329,824Z" transform="translate(-594.05 -805.319)" fill="#fff"/>
            <path id="Path_1548" d="M595.329,537.591a1.279,1.279,0,0,1-1.279-1.279v-.864a1.279,1.279,0,0,1,2.558,0v.864A1.279,1.279,0,0,1,595.329,537.591Z" transform="translate(-594.05 -534.17)" fill="#fff"/>
          </g>
        </g>
      </g>
    </g>
    <g id="Group_100" data-name="Group 100" transform="translate(32.948 26.274)">
      <path id="Path_1549" d="M969.252,834.948H936.186a4.482,4.482,0,0,1-4.476-4.476V787.466a4.481,4.481,0,0,1,4.476-4.476h33.066a4.481,4.481,0,0,1,4.476,4.476v43.006A4.481,4.481,0,0,1,969.252,834.948Zm-33.066-49.4a1.92,1.92,0,0,0-1.918,1.918v43.005a1.921,1.921,0,0,0,1.918,1.919h33.066a1.92,1.92,0,0,0,1.918-1.918V787.466a1.92,1.92,0,0,0-1.918-1.918Z" transform="translate(-931.71 -782.99)" fill="#fff"/>
      <g id="Group_99" data-name="Group 99" transform="translate(5.213 5.008)">
        <path id="Path_1550" d="M1059.863,886.969h-29.034a1.279,1.279,0,0,1-1.279-1.279v-7.431a1.279,1.279,0,0,1,1.279-1.279h29.034a1.279,1.279,0,0,1,1.279,1.279v7.431A1.279,1.279,0,0,1,1059.863,886.969Zm-27.756-2.557h26.477v-4.874h-26.477Z" transform="translate(-1029.55 -876.98)" fill="#fff"/>
        <path id="Path_1551" d="M1037.291,1107.024h-6.463a1.279,1.279,0,0,1-1.279-1.279v-6.627a1.279,1.279,0,0,1,1.279-1.279h6.463a1.279,1.279,0,0,1,1.279,1.279v6.627A1.278,1.278,0,0,1,1037.291,1107.024Zm-5.183-2.558h3.905V1100.4h-3.905Z" transform="translate(-1029.55 -1086.072)" fill="#fff"/>
        <path id="Path_1552" d="M1249.111,1107.034h-6.463a1.279,1.279,0,0,1-1.279-1.279v-6.627a1.279,1.279,0,0,1,1.279-1.279h6.463a1.279,1.279,0,0,1,1.279,1.279v6.627A1.279,1.279,0,0,1,1249.111,1107.034Zm-5.184-2.558h3.905v-4.069h-3.905Z" transform="translate(-1230.084 -1086.082)" fill="#fff"/>
        <path id="Path_1553" d="M1460.921,1107.024h-6.463a1.279,1.279,0,0,1-1.279-1.279v-6.627a1.279,1.279,0,0,1,1.279-1.279h6.463a1.279,1.279,0,0,1,1.279,1.279v6.627A1.278,1.278,0,0,1,1460.921,1107.024Zm-5.183-2.558h3.905V1100.4h-3.905Z" transform="translate(-1430.608 -1086.072)" fill="#fff"/>
        <path id="Path_1554" d="M1037.3,1303.994h-6.463a1.279,1.279,0,0,1-1.279-1.279v-6.627a1.279,1.279,0,0,1,1.279-1.279h6.463a1.279,1.279,0,0,1,1.279,1.279v6.627A1.279,1.279,0,0,1,1037.3,1303.994Zm-5.184-2.557h3.905v-4.069h-3.905Z" transform="translate(-1029.559 -1272.547)" fill="#fff"/>
        <path id="Path_1555" d="M1249.111,1303.994h-6.463a1.279,1.279,0,0,1-1.279-1.279v-6.627a1.279,1.279,0,0,1,1.279-1.279h6.463a1.279,1.279,0,0,1,1.279,1.279v6.627A1.278,1.278,0,0,1,1249.111,1303.994Zm-5.184-2.557h3.905v-4.069h-3.905Z" transform="translate(-1230.084 -1272.547)" fill="#fff"/>
        <path id="Path_1556" d="M1037.29,1500.954h-6.463a1.279,1.279,0,0,1-1.279-1.279v-6.627a1.279,1.279,0,0,1,1.279-1.279h6.463a1.279,1.279,0,0,1,1.279,1.279v6.627A1.279,1.279,0,0,1,1037.29,1500.954Zm-5.184-2.558h3.905v-4.069h-3.905Z" transform="translate(-1029.549 -1459.013)" fill="#fff"/>
        <path id="Path_1557" d="M1249.1,1500.954h-6.463a1.279,1.279,0,0,1-1.279-1.279v-6.627a1.279,1.279,0,0,1,1.279-1.279h6.463a1.279,1.279,0,0,1,1.279,1.279v6.627A1.279,1.279,0,0,1,1249.1,1500.954Zm-5.184-2.558h3.905v-4.069h-3.905Z" transform="translate(-1230.074 -1459.013)" fill="#fff"/>
        <path id="Path_1558" d="M1460.921,1314.49h-6.463a1.279,1.279,0,0,1-1.279-1.279V1296.09a1.279,1.279,0,0,1,1.279-1.279h6.463a1.279,1.279,0,0,1,1.279,1.279v17.121A1.279,1.279,0,0,1,1460.921,1314.49Zm-5.184-2.557h3.9v-14.564h-3.9Z" transform="translate(-1430.608 -1272.548)" fill="#fff"/>
      </g>
    </g>
    <g id="Group_103" data-name="Group 103" transform="translate(54.647 0)">
      <g id="Group_102" data-name="Group 102" transform="translate(7.614 4.72)">
        <path id="Path_1559" d="M1490.28,415.273h0a3.527,3.527,0,0,0-1.491-1.189,13.982,13.982,0,0,0-2.358-.683,4.893,4.893,0,0,1-1.885-.646.784.784,0,0,1-.272-.626.973.973,0,0,1,.421-.791,2.587,2.587,0,0,1,1.562-.369,2.432,2.432,0,0,1,1.552.411,1.529,1.529,0,0,1,.487.768,1.043,1.043,0,0,0,1.082.753h.017a1.051,1.051,0,0,0,.935-1.331,3.433,3.433,0,0,0-.434-.948,3.313,3.313,0,0,0-1.521-1.232,5.578,5.578,0,0,0-2.174-.4,5.319,5.319,0,0,0-2.041.381,3.137,3.137,0,0,0-1.472,1.178,3.015,3.015,0,0,0-.507,1.673,2.746,2.746,0,0,0,.423,1.491,3.18,3.18,0,0,0,1.247,1.1,9.726,9.726,0,0,0,2.083.678,16.933,16.933,0,0,1,1.789.489,1.758,1.758,0,0,1,.76.484.97.97,0,0,1,.2.61,1.1,1.1,0,0,1-.219.656,1.544,1.544,0,0,1-.716.5,3.431,3.431,0,0,1-1.239.206,3.565,3.565,0,0,1-1.428-.274,1.96,1.96,0,0,1-.871-.663,2.07,2.07,0,0,1-.269-.61,1.056,1.056,0,0,0-2.047.521,3.786,3.786,0,0,0,.523,1.215,3.684,3.684,0,0,0,1.656,1.372,6.339,6.339,0,0,0,2.5.44,5.124,5.124,0,0,0,2.149-.44,3.5,3.5,0,0,0,1.519-1.275,3.2,3.2,0,0,0,.534-1.763A2.959,2.959,0,0,0,1490.28,415.273Z" transform="translate(-1481.866 -407.363)" fill="#fff"/>
        <g id="Group_101" data-name="Group 101" transform="translate(3.176)">
          <path id="Path_1560" d="M1542.759,597.29a1.279,1.279,0,0,1-1.279-1.279v-.653a1.279,1.279,0,0,1,2.558,0v.653A1.279,1.279,0,0,1,1542.759,597.29Z" transform="translate(-1541.48 -582.591)" fill="#fff"/>
          <path id="Path_1561" d="M1542.759,381.668a1.279,1.279,0,0,1-1.279-1.279v-.651a1.279,1.279,0,0,1,2.558,0v.651A1.279,1.279,0,0,1,1542.759,381.668Z" transform="translate(-1541.48 -378.46)" fill="#fff"/>
        </g>
      </g>
      <path id="Path_1562" d="M1351.029,314.009a12.07,12.07,0,1,1,8.534-3.535A11.991,11.991,0,0,1,1351.029,314.009Zm0-21.581a9.512,9.512,0,1,0,9.512,9.512A9.523,9.523,0,0,0,1351.029,292.427Z" transform="translate(-1338.959 -289.87)" fill="#fff"/>
    </g>
  </g>
  <g id="Group_105" data-name="Group 105" transform="translate(0 43.05)">
    <path id="Path_1563" d="M283.445,1596.743H260.488a4.493,4.493,0,0,1-4.488-4.488v-.107a4.493,4.493,0,0,1,4.488-4.488h22.958a4.493,4.493,0,0,1,4.488,4.488v.107A4.494,4.494,0,0,1,283.445,1596.743Zm-22.957-6.525a1.933,1.933,0,0,0-1.93,1.93v.106a1.933,1.933,0,0,0,1.93,1.93h22.957a1.933,1.933,0,0,0,1.931-1.931v-.106a1.933,1.933,0,0,0-1.93-1.93Z" transform="translate(-256 -1561.562)" fill="#fff"/>
    <path id="Path_1564" d="M283.445,1474.293H260.488a4.493,4.493,0,0,1-4.488-4.488v-.107a4.493,4.493,0,0,1,4.488-4.488h22.958a4.493,4.493,0,0,1,4.488,4.488v.107A4.494,4.494,0,0,1,283.445,1474.293Zm-22.957-6.525a1.933,1.933,0,0,0-1.93,1.93v.107a1.932,1.932,0,0,0,1.93,1.93h22.957a1.933,1.933,0,0,0,1.931-1.931v-.106a1.933,1.933,0,0,0-1.93-1.93Z" transform="translate(-256 -1445.637)" fill="#fff"/>
    <path id="Path_1565" d="M283.445,1351.833H260.488a4.493,4.493,0,0,1-4.488-4.488v-.106a4.493,4.493,0,0,1,4.488-4.488h22.958a4.493,4.493,0,0,1,4.488,4.488v.106A4.494,4.494,0,0,1,283.445,1351.833Zm-22.957-6.525a1.933,1.933,0,0,0-1.93,1.93v.107a1.933,1.933,0,0,0,1.93,1.93h22.957a1.933,1.933,0,0,0,1.931-1.931v-.106a1.932,1.932,0,0,0-1.93-1.93Z" transform="translate(-256 -1329.702)" fill="#fff"/>
    <path id="Path_1566" d="M283.445,1229.383H260.488A4.493,4.493,0,0,1,256,1224.9v-.107a4.493,4.493,0,0,1,4.488-4.488h22.958a4.493,4.493,0,0,1,4.488,4.488v.107A4.494,4.494,0,0,1,283.445,1229.383Zm-22.957-6.525a1.933,1.933,0,0,0-1.93,1.93v.107a1.933,1.933,0,0,0,1.93,1.93h22.957a1.933,1.933,0,0,0,1.931-1.931v-.106a1.933,1.933,0,0,0-1.93-1.93Z" transform="translate(-256 -1213.776)" fill="#fff"/>
    <path id="Path_1567" d="M283.445,1106.923H260.488a4.493,4.493,0,0,1-4.488-4.488v-.106a4.493,4.493,0,0,1,4.488-4.488h22.958a4.493,4.493,0,0,1,4.488,4.488v.106A4.494,4.494,0,0,1,283.445,1106.923Zm-22.957-6.525a1.933,1.933,0,0,0-1.93,1.931v.107a1.932,1.932,0,0,0,1.93,1.93h22.957a1.933,1.933,0,0,0,1.931-1.931v-.106a1.932,1.932,0,0,0-1.93-1.93H260.488Z" transform="translate(-256 -1097.841)" fill="#fff"/>
  </g>
</svg>